/* XPM */
static const char *defaultIcon_xpm[] = {
/* columns rows colors chars-per-pixel */
"16 16 236 2",
"   c #002528",
".  c #002629",
"X  c #00252E",
"o  c #00272C",
"O  c #00262F",
"+  c #00272E",
"@  c #00282B",
"#  c #022A29",
"$  c #00282E",
"%  c #00292E",
"&  c #002C2F",
"*  c #002932",
"=  c #002C31",
"-  c #002D30",
";  c #002F32",
":  c #002E35",
">  c #062936",
",  c #072A37",
"<  c #082E37",
"1  c #082C38",
"2  c #003227",
"3  c #04302E",
"4  c #053926",
"5  c #003232",
"6  c #003333",
"7  c #003134",
"8  c #003431",
"9  c #003531",
"0  c #003432",
"q  c #003433",
"w  c #003532",
"e  c #003434",
"r  c #003534",
"t  c #093037",
"y  c #0A3139",
"u  c #0B313A",
"i  c #083439",
"p  c #0F353B",
"a  c #00410F",
"s  c #004B0D",
"d  c #004D12",
"f  c #004F13",
"g  c #00491B",
"h  c #004A1B",
"j  c #004B1B",
"k  c #00481C",
"l  c #054C1D",
"z  c #005200",
"x  c #005603",
"c  c #005704",
"v  c #00510E",
"b  c #00540D",
"n  c #015904",
"m  c #005E00",
"M  c #045911",
"N  c #054425",
"B  c #164631",
"V  c #12433A",
"C  c #14473D",
"Z  c #124F39",
"A  c #18403A",
"S  c #105A20",
"D  c #12513B",
"F  c #006100",
"G  c #06610A",
"H  c #126C1E",
"J  c #137112",
"K  c #127217",
"L  c #13711B",
"P  c #126920",
"I  c #1E6E2D",
"U  c #2D7B2A",
"Y  c #1C4842",
"T  c #1E4A43",
"R  c #2C504A",
"E  c #2D524B",
"W  c #285A47",
"Q  c #285C47",
"!  c #325D4D",
"~  c #236041",
"^  c #2C6249",
"/  c #306749",
"(  c #088506",
")  c #0B8A07",
"_  c #009200",
"`  c #009500",
"'  c #0E9E0E",
"]  c #148E15",
"[  c #168E18",
"{  c #119D10",
"}  c #06A202",
"|  c #07A303",
" . c #10A609",
".. c #10A60A",
"X. c #12A80A",
"o. c #15AA0C",
"O. c #12A110",
"+. c #15A312",
"@. c #14A711",
"#. c #16A615",
"$. c #1CAC12",
"%. c #1EAD13",
"&. c #1EB011",
"*. c #1FB311",
"=. c #2C9D29",
"-. c #2F9637",
";. c #378C35",
":. c #32952F",
">. c #3B9D37",
",. c #23B018",
"<. c #25B119",
"1. c #2DB71D",
"2. c #2CB81D",
"3. c #2FB81F",
"4. c #2DBD1D",
"5. c #33BE1F",
"6. c #25AB21",
"7. c #27AB22",
"8. c #30B920",
"9. c #32BD20",
"0. c #39B82F",
"q. c #3BB931",
"w. c #3A8B45",
"e. c #3F9348",
"r. c #2CC119",
"t. c #38C123",
"y. c #3AC223",
"u. c #39C026",
"i. c #3DC427",
"p. c #3AC128",
"a. c #3CC028",
"s. c #3DC229",
"d. c #3FC72B",
"f. c #3FC42E",
"g. c #41844E",
"h. c #44914D",
"j. c #48984C",
"k. c #5C906A",
"l. c #52A14B",
"z. c #5CAF57",
"x. c #57BC56",
"c. c #5FB457",
"v. c #5ABE59",
"b. c #5EBB5E",
"n. c #64BF65",
"m. c #40C929",
"M. c #41C92A",
"N. c #47C82F",
"B. c #48C930",
"V. c #48CA31",
"C. c #4ACA31",
"Z. c #4FCE36",
"A. c #50CE36",
"S. c #52CF38",
"D. c #51D735",
"F. c #53D038",
"G. c #53D138",
"H. c #55D138",
"J. c #56D33A",
"K. c #52D934",
"L. c #58D937",
"P. c #59D839",
"I. c #54C04D",
"U. c #55C04F",
"Y. c #5FD940",
"T. c #61C45C",
"R. c #60DA41",
"E. c #61DA41",
"W. c #62DA42",
"Q. c #66DD44",
"!. c #66DD45",
"~. c #69DE45",
"^. c #67E047",
"/. c #68E247",
"(. c #6AE047",
"). c #6EE34A",
"_. c #6FE34A",
"`. c #74EF47",
"'. c #78E84F",
"]. c #7FE45F",
"[. c #78E950",
"{. c #79EA52",
"}. c #7BEB53",
"|. c #75F149",
" X c #81F652",
".X c #82F653",
"XX c #87F35A",
"oX c #89F45C",
"OX c #92FF5F",
"+X c #93FF5F",
"@X c #80E560",
"#X c #8CF661",
"$X c #8DF761",
"%X c #88B38B",
"&X c #90AD9B",
"*X c #83CD84",
"=X c #85CE86",
"-X c #91D591",
";X c #97D397",
":X c #94D894",
">X c #98D399",
",X c #99D699",
"<X c #9AD79A",
"1X c #9ED79F",
"2X c #AADCAA",
"3X c #ABDDAB",
"4X c #ACDFAC",
"5X c #AFDFAF",
"6X c #A6E1A4",
"7X c #ADE7A6",
"8X c #BAE3BA",
"9X c #BBE4BB",
"0X c #C2E6C2",
"qX c #C3E8C3",
"wX c #C4E8C4",
"eX c #C6E8C6",
"rX c #C7ECC4",
"tX c #C8EBC8",
"yX c #C9EDC8",
"uX c #CDEFC9",
"iX c #D1E0D3",
"pX c #D4E1D7",
"aX c #D6EFD6",
"sX c #D7EFD7",
"dX c #D7F0D7",
"fX c #D9F0DA",
"gX c #DEF2DE",
"hX c #EAF1EC",
"jX c #EBF1EC",
"kX c #E9F5E9",
"lX c #EAF6EA",
"zX c #F3FAF3",
"xX c #F7FFF5",
"cX c #F9FFF5",
"vX c gray100",
"bX c None",
/* pixels */
"bXbXbXF z a B R R A # . . bXbXbX",
"bXbXx m U %XiXjXjXpX&X! . % bXbX",
"bXf n l.rXxXvXvXvXvXcXuXk.3 = bX",
"j s ;.6XtXaXkXzXzXlXfXyX7Xg.# = ",
"k b :.-X4XwXaXgXgXdXeX5X:X>.N : ",
"l K ( b.,X2X8XqXwX9X3X<Xn.) H i ",
"S [ ` O.x.*X;X<X1X>X=Xv.+.` ] V ",
"P { | ..$.0.x.T.T.U.q.%...| ' Z ",
"L #.o.<.2.9.t.i.s.y.5.2.<.o.@.D ",
"J 7.$.8.p.N.Z.G.G.Z.C.s.8.*.6.C ",
"G =.4.9.C.J.Y.Q.Q.Y.J.C.p.r.-.y ",
"v I f.d.S.Y._.'.[._.Y.J.M.d.~ * ",
"b 4 w.K.L.~.[.XXoX}.(.P.K.e.1 = ",
"bX2 u h.^.`..X+X+X.X|./.j.p = bX",
"bXbX% , ^ z.].#X$X@Xc./ , % bXbX",
"bXbXbXX X < T W Q T t X X bXbXbX"
};
