/* XPM */
static const char *file_xpm[] = {
/* columns rows colors chars-per-pixel */
"16 16 64 1",
"  c black",
". c gray25",
"X c #585858",
"o c #676767",
"O c #628CFF",
"+ c #648DFF",
"@ c #6B93FF",
"# c #749AFF",
"$ c #79A1FF",
"% c #7EA1FF",
"& c gray66",
"* c #87A8FF",
"= c #90AFFF",
"- c #99B5FF",
"; c #A2BCFF",
": c #B3CBFF",
"> c #CCD7F5",
", c #CED8F6",
"< c #CFD9F7",
"1 c #D0DAF9",
"2 c #D2DCFA",
"3 c #D4DEFB",
"4 c #D8E2FD",
"5 c #D9E3FF",
"6 c #DCE5FE",
"7 c #DFE8FF",
"8 c gray91",
"9 c #E9E9E9",
"0 c #EAEAEA",
"q c gray92",
"w c #ECECEC",
"e c gray93",
"r c #EEEEEE",
"t c #EFEFEF",
"y c #E2EAFF",
"u c #E5ECFF",
"i c #E6EDFF",
"p c gray94",
"a c #F1F1F1",
"s c gray95",
"d c #F3F3F3",
"f c #F6F5F0",
"g c #F4F4F4",
"h c gray96",
"j c #F6F6F6",
"k c gray97",
"l c #F2F7FF",
"z c #F8F6F2",
"x c #FAF7F3",
"c c #FCFAF5",
"v c #FCFBF6",
"b c #FDFCF6",
"n c #F8F8F8",
"m c #F9F9F9",
"M c gray98",
"N c #FBFBFB",
"B c #FFFDF9",
"V c #FFFEFB",
"C c gray99",
"Z c #FDFDFD",
"A c #FFFFFD",
"S c #FEFEFE",
"D c gray100",
"F c None",
/* pixels */
"&&&&&&&&&&&&&&&&",
"&:;-=*%#@++++O$&",
"&liiy654321,,>5&",
"&DDDDDDBBbbxxfb&",
"&DDDDDDMMkjpptd&",
"&DDDDMMMhjhdp9d&",
"&DDDDNMhjhdpq8h&",
"&DDDMMMhhdpe9qM&",
"&DDDMMMhdpeweeM&",
"&MphhhpppeetttB&",
"&MppppppppppeeD&",
"&Mhphphpdhq&&&&&",
"&Dhhhhhhhh9&DMo ",
"&DMhMhhMkM9&9X F",
"&DDDDDDDDDk&.FFF",
"&&&&&&&&&&&&FFFF"
};
