/* XPM */
static const char *folder_closed_xpm[] = {
/* columns rows colors chars-per-pixel */
"16 16 85 1",
"  c black",
". c #091D91",
"X c #091E90",
"o c #091E91",
"O c #0B2599",
"+ c #0C2599",
"@ c #102DA2",
"# c #1337AA",
"$ c #1337AC",
"% c #183FB5",
"& c #1840B5",
"* c #1B49BD",
"= c #1C49BD",
"- c #274B97",
"; c #274D9B",
": c #28509F",
"> c #2852A3",
", c #2955A8",
"< c #2A58AE",
"1 c #2B5AB1",
"2 c #2C5EB8",
"3 c #2D61BD",
"4 c #1E52C5",
"5 c #1F52C5",
"6 c #2259CB",
"7 c #2259CC",
"8 c #255FD1",
"9 c #2E63C0",
"0 c #2F66C6",
"q c #306ACC",
"w c #306DD1",
"e c #316DD1",
"r c #306DD2",
"t c #306ED1",
"y c #316ED2",
"u c #3170D6",
"i c #3273DB",
"p c #3373DB",
"a c #3274DB",
"s c #3274DC",
"d c #277BFD",
"f c #287BFD",
"g c #287CFD",
"h c #5F7DB1",
"j c #3987FD",
"k c #3988FD",
"l c #4F97FD",
"z c #4F98FD",
"x c #5098FD",
"c c #4FAEFD",
"v c #6BA9FD",
"b c #6BAAFD",
"n c #62B7FD",
"m c #6DBEFD",
"M c #7AC4FD",
"N c #86B9EC",
"B c #89BDFD",
"V c #89BEFD",
"C c #8CBDFD",
"Z c #AEAEC6",
"A c #88CBFD",
"S c #9EC6EE",
"D c #99D3FD",
"F c #ACD1FD",
"G c #A9DAFD",
"H c #A9DBFD",
"J c #B9E1FD",
"K c #B9E2FD",
"L c #BCE1FD",
"P c #BCE2FD",
"I c #CBE8FD",
"U c #CBE9FD",
"Y c #DAEEFD",
"T c #DBEEFD",
"R c #DAF0FD",
"E c #DBF0FD",
"W c #E8F5FD",
"Q c #E9F5FD",
"! c #E8F6FD",
"~ c #F5F9FD",
"^ c #F5FBFD",
"/ c #FCFCFD",
"( c #FDFDFD",
") c gray100",
"_ c None",
/* pixels */
"__aiasaa________",
"_u~~^~~~u_______",
"r!!!!!!!hrruqur_",
"qEEETTTTTTTTTTTq",
"0IIIIIUUI8888888",
"9JJPJPJJ8S/(((F8",
"3GG88888N/CVVVV8",
"2D6b((///bbbbbb7",
"<A5xzlxxllzzxzz4",
"<M=jkjjjjjjjjjj*",
",m%ggfffdddfdgg%",
">n#(((((((((((Z#",
":n@(((((((((((Z@",
";c+ZZZZZZZZZZZZ+",
"_;...OX.XX.OO.._",
"________________"
};
