/* XPM */
static const char *folder_open_xpm[] = {
/* columns rows colors chars-per-pixel */
"16 16 115 2",
"   c black",
".  c #061C90",
"X  c #091D91",
"o  c #091E90",
"O  c #091E91",
"+  c #092097",
"@  c #0B299E",
"#  c #132D9E",
"$  c #0D30A8",
"%  c #1539AC",
"&  c #143FB2",
"*  c #1841B2",
"=  c #194ABE",
"-  c #1C4EBF",
";  c #274D9B",
":  c #28509F",
">  c #2340A8",
",  c #2852A3",
"<  c #2955A8",
"1  c #2A58AE",
"2  c #2B5AB1",
"3  c #2C5EB8",
"4  c #3755B1",
"5  c #2D61BD",
"6  c #1E54C8",
"7  c #1D54CC",
"8  c #1F5BD8",
"9  c #1F5DD8",
"0  c #235FCE",
"q  c #245ECF",
"w  c #275FCF",
"e  c #285FCF",
"r  c #235DD1",
"t  c #255FD1",
"y  c #265ED3",
"u  c #2E63C0",
"i  c #2F66C6",
"p  c #2761D2",
"a  c #306ACC",
"s  c #306DD1",
"d  c #316DD1",
"f  c #306DD2",
"g  c #306ED1",
"h  c #316ED2",
"j  c #356ED8",
"k  c #3170D6",
"l  c #3273DB",
"z  c #3373DB",
"x  c #3274DB",
"c  c #3274DC",
"v  c #3C75D3",
"b  c #2D70E6",
"n  c #277BFD",
"m  c #287BFD",
"M  c #287CFD",
"N  c #5F7DB1",
"B  c #2982FD",
"V  c #2983FD",
"C  c #3987FD",
"Z  c #3988FD",
"A  c #3A8DFD",
"S  c #3C90FD",
"D  c #4487F3",
"F  c #4F97FD",
"G  c #4F98FD",
"H  c #5290E3",
"J  c #5098FD",
"K  c #5099FD",
"L  c #55A0FD",
"P  c #64A2F9",
"I  c #64A6FD",
"U  c #6BA9FD",
"Y  c #6BAAFD",
"T  c #6FB0F2",
"R  c #7DAFE8",
"E  c #7AB6FD",
"W  c #9BA0C3",
"Q  c #82B6E9",
"!  c #89BDFD",
"~  c #89BEFD",
"^  c #8DBFFD",
"/  c #8EBEFD",
"(  c #9EB1E1",
")  c #AEAEC6",
"_  c #AFAFC6",
"`  c #B9B7C9",
"'  c #8EC8F9",
"]  c #A9DAFD",
"[  c #A9DBFD",
"{  c #B9E1FD",
"}  c #B9E2FD",
"|  c #BCE1FD",
" . c #BCE2FD",
".. c #D2CCD5",
"X. c #C3CFED",
"o. c #C9E3FD",
"O. c #CBE8FD",
"+. c #CBE9FD",
"@. c #DAEEFD",
"#. c #DBEEFD",
"$. c #DAF0FD",
"%. c #DBF0FD",
"&. c #E0D6DB",
"*. c #E8F5FD",
"=. c #E9F5FD",
"-. c #E8F6FD",
";. c #F0F6FC",
":. c #F0F6FD",
">. c #F5F9FD",
",. c #F5FBFD",
"<. c #FCFCFD",
"1. c #FDFCFD",
"2. c #FDFDFD",
"3. c gray100",
"4. c None",
/* pixels */
"4.4.x l l x x x 4.4.4.4.4.4.4.4.",
"4.k >.>.>.>.>.>.k 4.4.4.4.4.4.4.",
"f -.-.-.-.-.-.-.N f f f g f f 4.",
"a %.%.%.%.#.#.%.#.#.#.%.%.%.%.a ",
"i O.O.O.O.O.O.O.O.0 t t t t t t ",
"u { { { {  .{ { 7 R ;.2.2.2.o.j ",
"5 ] ] w p t t r Q 2./ ! ! ! / p ",
"3 ' w E 2.<.<.2.;.I Y Y Y Y P 6 ",
"1 T p L G J F J G G G G J J D = ",
"1 H w A Z Z C Z C C Z Z Z A b * ",
"< v 9 V m M M m m n m m n V 8 % ",
", - ( 2.2.2.2.2.2.2.2.2.2.&.4 $ ",
": & X.2.2.2.2.2.2.2.2.2.2...> @ ",
"; + W _ _ _ ) ) ) ) _ _ ) ` # . ",
"4.X X X X + + X o o + o + X X 4.",
"4.4.4.4.4.4.4.4.4.4.4.4.4.4.4.4."
};
