/* XPM */
static const char *lightIcon_xpm[] = {
/* columns rows colors chars-per-pixel */
"16 16 75 1",
"  c black",
". c #010101",
"X c gray1",
"o c gray12",
"O c #26262B",
"+ c #2E2E32",
"@ c #2B2B52",
"# c #30305C",
"$ c #34345B",
"% c #444444",
"& c gray35",
"* c #525279",
"= c #656565",
"- c #5555A2",
"; c #5D5DA7",
": c #5E5FA8",
"> c #5F5FA8",
", c #6B6B96",
"< c #6363AA",
"1 c #6465AE",
"2 c #6566AE",
"3 c #6F6FB1",
"4 c #7171B3",
"5 c #7373B3",
"6 c #7476B9",
"7 c #7C7CB8",
"8 c gray51",
"9 c #929292",
"0 c #9F9F9F",
"q c #8D8FC9",
"w c #8F93CD",
"e c #9192C6",
"r c #9597CE",
"t c #9898C7",
"y c #9D9FD2",
"u c #9BA0D6",
"i c #9FA1D1",
"p c #A1A1CC",
"a c #A3A3CD",
"s c #A0A2D1",
"d c #A2A3D0",
"f c #A2A4D3",
"g c #A8A8D0",
"h c #AAAEDC",
"j c #B1B1C1",
"k c #B6BAE3",
"l c #B9BBE1",
"z c #BFC3E8",
"x c #C3C3CF",
"c c #D4D4DD",
"v c #C8C8E2",
"b c #CECFE8",
"n c #DDDDE4",
"m c #DADFF9",
"M c #DBE0FA",
"N c #DCE2FF",
"B c #DFE5FF",
"V c #E8E8ED",
"C c #E2E6FA",
"Z c #E1E7FF",
"A c #E2E8FF",
"S c #E3E8FF",
"D c #E5E9FC",
"F c #E6EBFF",
"G c #EDEDF1",
"H c #E8EDFF",
"J c #E9EDFF",
"K c #EAEDFF",
"L c #F0F3FF",
"P c #F3F5FF",
"I c #F6F8FF",
"U c #FBFCFF",
"Y c #FCFDFF",
"T c gray100",
"R c None",
/* pixels */
"RRRRptyrq3<RRRRR",
"RRgakDTTUCw--RRR",
"RRazUTTTTTUy-RRR",
"RRdJUUTTUUTD1RRR",
"RRdHPPPPPPPD6RRR",
"RReNJJJJJJJN2RRR",
"RR7kBBBBBBBh-RRR",
"RR55mZZZZZm:-RRR",
"RRR;yJKKKKy-RRRR",
"RRR->PPKPP:-RRRR",
"RRRR-bIIIb-RRRRR",
"RRRR-vTTUv-RRRRR",
"RRRR-,*$@#-RRRRR",
"RRRR90Vnx+ RRRRR",
"RRRR=8VcjO RRRRR",
"RRRRRO&%X RRRRRR"
};
