/* XPM */
static const char *meshIcon_xpm[] = {
/* columns rows colors chars-per-pixel */
"16 16 136 2",
"   c black",
".  c #9A4E00",
"X  c #A04E00",
"o  c #A85700",
"O  c #AC5300",
"+  c #B15C03",
"@  c #B35D03",
"#  c #B16103",
"$  c #C65B00",
"%  c #C85400",
"&  c #CC5400",
"*  c #D05D00",
"=  c #C26B08",
"-  c #C06D09",
";  c #CF6301",
":  c #CF6302",
">  c #CF6A07",
",  c #C27206",
"<  c #CB7C02",
"1  c #D26003",
"2  c #D26606",
"3  c #D76000",
"4  c #D76701",
"5  c #D56E04",
"6  c #D66F06",
"7  c #D56D09",
"8  c #D56E08",
"9  c #D37709",
"0  c #E37402",
"q  c #E1760A",
"w  c #E37509",
"e  c #E97C04",
"r  c #E47F10",
"t  c #DC8908",
"y  c #DB9210",
"u  c #E38806",
"i  c #EB8006",
"p  c #EC8408",
"a  c #ED870A",
"s  c #E88714",
"d  c #E88E13",
"f  c #E19605",
"g  c #E2980F",
"h  c #E9990D",
"j  c #ED9214",
"k  c #F88905",
"l  c #E29728",
"z  c #ECAC00",
"x  c #E3A010",
"c  c #F1AB0B",
"v  c #F8A00B",
"b  c #F3A019",
"n  c #F2B20B",
"m  c #F3B10D",
"M  c #F6BD01",
"N  c #FEB30D",
"B  c #F8BE0E",
"V  c #FEB90E",
"C  c #EBAE29",
"Z  c #FBB223",
"A  c #EBB347",
"S  c #ECB74F",
"D  c #F3B746",
"F  c #F3BD49",
"G  c #F9C30F",
"H  c #FECA0F",
"J  c #FECB0F",
"K  c #FECC0E",
"L  c #FECC0F",
"P  c #FECF0D",
"I  c #FCC210",
"U  c #FEC512",
"Y  c #FEC611",
"T  c #FEC612",
"R  c #FEC417",
"E  c #FEC810",
"W  c #FEC910",
"Q  c #FECA10",
"!  c #FED20B",
"~  c #FED30B",
"^  c #FED00D",
"/  c #FED50B",
"(  c #FED609",
")  c #FED60A",
"_  c #FEDD07",
"`  c #FEDE07",
"'  c #FED809",
"]  c #FEDA09",
"[  c #FEDC08",
"{  c #FEDD0B",
"}  c #FCD01F",
"|  c #F8CA2F",
" . c #F3C639",
".. c #FEE006",
"X. c #FEE304",
"o. c #FCE401",
"O. c #FEE603",
"+. c #FEE703",
"@. c #FEE404",
"#. c #FEE803",
"$. c #FEE903",
"%. c #FCE904",
"&. c #FEEC02",
"*. c #FEEE01",
"=. c #FEF101",
"-. c #FEF301",
";. c #FEF202",
":. c #FEF505",
">. c #FEF60C",
",. c #FEF613",
"<. c #FDF616",
"1. c #FDF719",
"2. c #FEF619",
"3. c #FEED27",
"4. c #FDF729",
"5. c #F0C654",
"6. c #FBCB57",
"7. c #F8DC5C",
"8. c #F9D674",
"9. c #FEE25E",
"0. c #FDF840",
"q. c #FCF955",
"w. c #FDF957",
"e. c #FEF85B",
"r. c #FBE36B",
"t. c #FEE770",
"y. c #FEED7D",
"u. c #FDF963",
"i. c #FEF981",
"p. c #FDFC9E",
"a. c #FEFC9F",
"s. c #FEF8B6",
"d. c #FDFEDE",
"f. c #FEFEED",
"g. c gray100",
"h. c None",
/* pixels */
"h.h.h.h.h.> l S A y # h.h.h.h.h.",
"h.h.h.h.7 8.d.p.e.e.| # h.h.h.h.",
"h.h.h.% F a.u.4.1.-.X.g X h.h.h.",
"h.h.h.6 r.1.1.>.-.$.[ G # h.h.h.",
"h.h.h.6 7.&.&.&.O._ ~ B , h.h.h.",
"h.h.h.;  .{ _ _ ( ~ J m o h.h.h.",
"h.h.h.% t } P P P Y I < X h.h.h.",
"h.h.h.h.6 C n Y Y c u = h.h.h.h.",
"h.h.h.2 D f.5.g f z M h + h.h.h.",
"h.h.h.d s.u.4.1.%.O.X.( 9 h.h.h.",
"h.h.& 6.i.:.:.-.&.O._ ( v . h.h.",
"h.h.s t.3.&.&.$.O._ ( P V ; h.h.",
"h.h.j y.{ X._ _ ( / P Y Y 4 h.h.",
"h.h.b 9./ / ( P P P Y Y Y 0 h.h.",
"h.h.r Z R Q P Y Q Y Y N k $ h.h.",
"h.h.h.1 q w p p p e * * O h.h.h."
};
