/* XPM */
static const char *sceneIcon_xpm[] = {
/* columns rows colors chars-per-pixel */
"16 16 210 2",
"   c black",
".  c #00000C",
"X  c #00000F",
"o  c #00001F",
"O  c #000518",
"+  c #060915",
"@  c #070B1B",
"#  c #080C15",
"$  c #0C0F19",
"%  c #0F121A",
"&  c #040D23",
"*  c #040C24",
"=  c #081027",
"-  c #091029",
";  c #101C3F",
":  c #091C48",
">  c #041E5E",
",  c #0A225C",
"<  c #142147",
"1  c #12224E",
"2  c #15224A",
"3  c #0C296F",
"4  c #012277",
"5  c #032577",
"6  c #042576",
"7  c #0A2A75",
"8  c #0B2B7C",
"9  c #0B2C7E",
"0  c #0E2D79",
"q  c #0C2D7C",
"w  c #0E2E7D",
"e  c #0E2E7E",
"r  c #0F2F7E",
"t  c #192F6A",
"y  c #132D70",
"u  c #152F70",
"i  c #102F7D",
"p  c #13307A",
"a  c #183071",
"s  c #2C3147",
"d  c #2F3348",
"f  c #22366E",
"g  c #24396F",
"h  c #283561",
"j  c #2C3A66",
"k  c #2A3869",
"l  c #3B415D",
"z  c #3C425D",
"x  c #2D4075",
"c  c #374463",
"v  c #34416B",
"b  c #3D4E74",
"n  c #3A4B7E",
"m  c #404E76",
"M  c #113180",
"N  c #123180",
"B  c #163482",
"V  c #183582",
"C  c #1B3985",
"Z  c #233E82",
"A  c #234089",
"S  c #25418A",
"D  c #27438B",
"F  c #26448F",
"G  c #294181",
"H  c #2A4283",
"J  c #2D4787",
"K  c #28438C",
"L  c #294489",
"P  c #2B468E",
"I  c #2C488D",
"U  c #2E4A8F",
"Y  c #274492",
"T  c #2C4992",
"R  c #364D87",
"E  c #324A8F",
"W  c #394B84",
"Q  c #3A4B85",
"!  c #324C91",
"~  c #334E91",
"^  c #344F90",
"/  c #375094",
"(  c #365099",
")  c #395195",
"_  c #39539D",
"`  c #3E5598",
"'  c #41558F",
"]  c #465B8E",
"[  c #41589A",
"{  c #41599A",
"}  c #425B99",
"|  c #465B9C",
" . c #495B92",
".. c #485E9F",
"X. c #495FA1",
"o. c #48609B",
"O. c #4D659E",
"+. c #4D659F",
"@. c #546390",
"#. c #4A63A6",
"$. c #5567A2",
"%. c #5068A9",
"&. c #5E6DA0",
"*. c #5C6EA5",
"=. c #5B6FA9",
"-. c #5B6EAD",
";. c #566CB0",
":. c #5F72A3",
">. c #5C71A8",
",. c #5E73A8",
"<. c #5F73AC",
"1. c #6274AC",
"2. c #6577AD",
"3. c #6779AE",
"4. c #687AAE",
"5. c #6A79AE",
"6. c #6C79A8",
"7. c #6E7BAC",
"8. c #6E7FAD",
"9. c #6C81B1",
"0. c #6F81B0",
"q. c #7384AE",
"w. c #7587B1",
"e. c #7382BE",
"r. c #7D89B2",
"t. c #7B8ABF",
"y. c #7C8BBB",
"u. c #7B89C3",
"i. c #7C8AC6",
"p. c #8796BF",
"a. c #8C97B1",
"s. c #8A94BD",
"d. c #8A94BE",
"f. c #8C99BA",
"g. c #8290C5",
"h. c #8997CC",
"j. c #8A97CC",
"k. c #8B97CE",
"l. c #8B9AC0",
"z. c #8B9BC0",
"x. c #8C9BC1",
"c. c #8E99CC",
"v. c #939CCF",
"b. c #97A2C8",
"n. c #99A4C8",
"m. c #9CAACB",
"M. c #9DA7D0",
"N. c #9EA7D2",
"B. c #9FA7D2",
"V. c #A4AEC7",
"C. c #A3ACCF",
"Z. c #ABB2C6",
"A. c #A6B1D1",
"S. c #A5B0DB",
"D. c #B1B7C8",
"F. c #B3BAD5",
"G. c #B7BED4",
"H. c #B6BDDC",
"J. c #B7BCDD",
"K. c #B9C2DB",
"L. c #BAC0DF",
"P. c #BEC6DA",
"I. c #B8C1E4",
"U. c #C7CCDD",
"Y. c #C8CDDD",
"T. c #C6CDE1",
"R. c #C9CEE3",
"E. c #C9CDE5",
"W. c #CACFE9",
"Q. c #CCD0E7",
"!. c #CFD3E7",
"~. c #CDD2E8",
"^. c #CDD4EB",
"/. c #D1D5E3",
"(. c #D3D6E4",
"). c #D0D4E9",
"_. c #D4D8E4",
"`. c #D4D8EA",
"'. c #D5D9EA",
"]. c #D7DBE9",
"[. c #D6D9EC",
"{. c #D7DBEC",
"}. c #DADFEA",
"|. c #D9DCEC",
" X c #DADDED",
".X c #DADEED",
"XX c #DDDFEF",
"oX c #DDE0EF",
"OX c #DFE1EE",
"+X c #DFE2EE",
"@X c #DCE2F6",
"#X c #E0E2EB",
"$X c #E0E2EF",
"%X c #E1E4F2",
"&X c #E5E7F2",
"*X c #E8E9F5",
"=X c #EAECF5",
"-X c #EAECF6",
";X c #EBEDF6",
":X c #EDEEF7",
">X c #EEEFF6",
",X c #EFF1F8",
"<X c #F2F2F7",
"1X c #F0F1F9",
"2X c #F3F3FB",
"3X c #F4F4FA",
"4X c #F5F8FF",
"5X c #FCFCFE",
"6X c gray100",
"7X c None",
/* pixels */
"7X7X7X7X6 ^ 9.x.x.w.b & 7X7X7X7X",
"7X7Xo L A.,X5X5X5X5X4XK.c   7X7X",
"7X  x ^.3X#X_.}.>X=X=X3X@Xm   7X",
"7X1 S./.D.Z.V.P.#X@X}.|.%XI.2 7X",
"X | n.a.f.z.m.'._.Y.Y.'.).W.$.X ",
"< _ ] q.9.p.oX-X*X$X{.).E.L.i.; ",
"f -.' O.O.,.T.<X>X&X{.R.F.s.u.k ",
"Q v.B.r.R I } :.G.<X{.Q.b. ...g ",
"Q k.m.J.@.7 M 4 8.:X[.J.H G ( , ",
"h k.B.s.u 8 9 4 o.XX~.,.> &.;.: ",
"- u.6.y 9 e M M V C.y.p u 7.e.* ",
"  n ..7 M C Z D S K B i P Y t   ",
"7X@ E T ~ / ` } } ) ~ I Y 0 O 7X",
"7X7X= J %.<.2.4.2.1.=.#.Z & 7X7X",
"7X7X7X# v 7.g.j.k.u.*.j + 7X7X7X",
"7X7X7X7X  % s l z s $   7X7X7X7X"
};
