/* XPM */
static char *blocks[] = {
/* columns rows colors chars-per-pixel */
"32 32 256 2",
"   c #0D6F01180000",
".  c #3C040EC60D39",
"X  c #1C555C856EAE",
"o  c #1CAB69BD6B52",
"O  c #195176097B18",
"+  c #3B4847275C1B",
"@  c #2F54599276D8",
"#  c #254F6C3B6DB8",
"$  c #284B770D78FD",
"%  c #327F78C27BC5",
"&  c #3A4E740C6BD8",
"*  c #48A239F23B3B",
"=  c #50863F6744D0",
"-  c #4BD63E834BDA",
";  c #4BFA54E75996",
":  c #599A468549E9",
">  c #52764EE25A53",
",  c #549453D756D4",
"<  c #4B1246AA4AA3",
"1  c #5A2F5F2D6646",
"2  c #4DE3564E6EE8",
"3  c #4C5363C567D2",
"4  c #4D0B64EA7A6A",
"5  c #5ADE664267D8",
"6  c #535C79BA7CBB",
"7  c #57516CDB76FD",
"8  c #67044C0C4BE0",
"9  c #67434EE254AB",
"0  c #6874552B554D",
"q  c #743E4FDC541A",
"w  c #78E1505B500B",
"e  c #7627553F554D",
"r  c #7B0F585E5978",
"t  c #70E644E94533",
"y  c #70995CB668B3",
"u  c #6E1E619C5C37",
"i  c #77CE63E35F51",
"p  c #6E1E670D426C",
"a  c #6AA763A16956",
"s  c #69F46816779B",
"d  c #791766FF6842",
"f  c #78DE6A2376B3",
"g  c #66BF759D78D7",
"h  c #19B879EB828A",
"j  c #1B8A7BA3963E",
"k  c #297F5C60826B",
"l  c #2CD664178D56",
"z  c #37B265008B34",
"x  c #38366A7D9707",
"c  c #33E47D0B8785",
"v  c #3E0D76659B76",
"b  c #2B7F72899C94",
"n  c #39AD7879A8EE",
"m  c #39FE7A3AB474",
"M  c #24026FF9A459",
"N  c #3B5D7D59C1A9",
"B  c #477F6B0D8343",
"V  c #455F6CA59442",
"C  c #45FE79FB8500",
"Z  c #4CCC77529948",
"A  c #56A3676C87E7",
"S  c #57EA6E199781",
"D  c #5F2A7C308F5F",
"F  c #599F79D595BE",
"G  c #476A7935A9F4",
"H  c #4AB27CC2B901",
"J  c #54427912A658",
"K  c #69937C848782",
"L  c #77AA74AA883B",
"P  c #7F91801B967B",
"I  c #6DC26A8985F9",
"U  c #6FCB7BD3A26A",
"Y  c #45E5805FC62A",
"T  c #7A0E9A387CDB",
"R  c #1BF787D08CC7",
"E  c #2727845E86C2",
"W  c #2D1E8C159401",
"Q  c #2D2993DC97DC",
"!  c #35A38ABF8C2E",
"~  c #37F28A8C9D86",
"^  c #35FF9B4E9AC3",
"/  c #24439E86A54E",
"(  c #39D68B15A97E",
")  c #3BDA98A8A73E",
"_  c #349A93F6AF96",
"`  c #309FA28F9E8A",
"'  c #2786AA63AB27",
"]  c #37F6A56CA979",
"[  c #3AA6AA30B41A",
"{  c #3B09B584AD90",
"}  c #3C63B6D9BBB8",
"|  c #3AC1B502B70A",
" . c #239FB3B9B752",
".. c #2CC58150CF08",
"X. c #3E4F8445CA1C",
"o. c #33B1915AD21C",
"O. c #35369A93E78F",
"+. c #3608BCEAC5D1",
"@. c #2F36B4EACE9B",
"#. c #3FAEC492C7DF",
"$. c #483588078C53",
"%. c #463E89A69554",
"&. c #548583E38B01",
"*. c #57FC86DD9A50",
"=. c #585898F99161",
"-. c #4A239A22978A",
";. c #4AF483D7B8F7",
":. c #45A59CCAA5D4",
">. c #46CE9BD2B542",
",. c #59778815B9B2",
"<. c #59EE999DB799",
"1. c #54F78D8BA71B",
"2. c #4799A8059C3E",
"3. c #552FAA039B7B",
"4. c #45B2A90FA9A6",
"5. c #46D0A949B711",
"6. c #48F6B790B836",
"7. c #5858B9E1BA0A",
"8. c #5395B105AC9E",
"9. c #701A87759335",
"0. c #669F867FA993",
"q. c #630D89E4BB8B",
"w. c #684995D6AA7D",
"e. c #77DB94EBB418",
"r. c #6FF3B0CAA20B",
"t. c #6D62B197BE99",
"y. c #493A88CFC8EF",
"u. c #4B468A82D469",
"i. c #4EA19BD6C762",
"p. c #55B88A2ECA2C",
"a. c #57028C48D230",
"s. c #5475993FC52E",
"d. c #57B59577DA47",
"f. c #42FA991FDEC0",
"g. c #597E9B80E278",
"h. c #49B2BE31C25A",
"j. c #53CBA982C47D",
"k. c #5A02AC87D659",
"l. c #4EC5B013D11F",
"z. c #4A93A574E9A4",
"x. c #5BBFA965E957",
"c. c #5828B9FFEC68",
"v. c #5707B69EEE39",
"b. c #664E8A84CD3F",
"n. c #66188E78D5B1",
"m. c #69C59772DB46",
"M. c #7B3298ACDC1C",
"N. c #71749143CBD8",
"B. c #75C39D0BE25A",
"V. c #6D78A95CCB8D",
"C. c #64E3ABE2D74D",
"Z. c #680EBB9CC3E2",
"A. c #62FAB681DB51",
"S. c #7619A899DACC",
"D. c #79FDB870CF56",
"F. c #796BAA33D2BA",
"G. c #694CA979EA1A",
"H. c #68EBB81CEECA",
"J. c #7881A727EAF0",
"K. c #7700B790E9F0",
"L. c #7358B722F2A5",
"P. c #5C34C130B061",
"I. c #69CDC6B9BBA4",
"U. c #7EA2CCD1BC21",
"Y. c #4E5FC513C8AC",
"T. c #47AFC543D89C",
"R. c #5AB0C58BC868",
"E. c #5C7FCCAAD7E9",
"W. c #52E5D22CDF77",
"Q. c #5843C290F2A3",
"!. c #528ECEB4E7CC",
"~. c #5304E624F93A",
"^. c #69AECAF9C841",
"/. c #6A8AD41BD614",
"(. c #7AF5DB0BDCC1",
"). c #734FC83DCF49",
"_. c #698BC8FBF3F0",
"`. c #69FAD936EAC6",
"'. c #6A9BDBF7F434",
"]. c #78AEC72AF5BB",
"[. c #75D6DF60E694",
"{. c #79F9DD6CF540",
"}. c #76DDC0D0E24A",
"|. c #6B29E77EF935",
" X c #78BBE315EAC2",
".X c #7879EBF3F84E",
"XX c #927643E13BB8",
"oX c #85385CB35BFE",
"OX c #8BD25DC25C1F",
"+X c #8637590C580D",
"@X c #8FE8562E565E",
"#X c #89CA5D4E6275",
"$X c #91665F7060A2",
"%X c #81695ED77387",
"&X c #8857620D5D48",
"*X c #9600608F5E08",
"=X c #8A0A6684678F",
"-X c #887873B86D10",
";X c #94036A0168AF",
":X c #91F06D637637",
">X c #B22C4ED5622B",
",X c #A4F37CCC7D1E",
"<X c #C66F78DD72C5",
"1X c #97467887919B",
"2X c #A41F78FE8C19",
"3X c #B3FB7BBB989F",
"4X c #D1537BD99757",
"5X c #94E890B48F88",
"6X c #884B9D37BE48",
"7X c #938F9328AADB",
"8X c #8F04AB4EB521",
"9X c #B8278BD59646",
"0X c #B9209A839867",
"qX c #A53292688E94",
"wX c #B628949FABDC",
"eX c #A69AA6979927",
"rX c #A991A98AB6A0",
"tX c #B794A43FA32A",
"yX c #B022B266AF80",
"uX c #89589C02E375",
"iX c #9665B6EFD07E",
"pX c #834CA42BE916",
"aX c #846AB8B5EF31",
"sX c #8990BAC0F4E0",
"dX c #92AFBC93F615",
"fX c #99A8BAA2E7D3",
"gX c #A690B004D012",
"hX c #ACA0BD16F21C",
"jX c #92199A5BD2D9",
"kX c #B504C54AB9E3",
"lX c #9442D0DCCF1B",
"zX c #8950C303F61F",
"xX c #8782DDCDF5F5",
"cX c #9985DA40F809",
"vX c #93BEC352EE57",
"bX c #92AAE290DC71",
"nX c #838BE458EA1E",
"mX c #857CE911F795",
"MX c #9AAFEA7BE83C",
"NX c #9869E4CFF5B0",
"BX c #908CF9ACFAEF",
"VX c #B7C8CD76CFC4",
"CX c #A7E2D811F511",
"ZX c #B699D608F0AA",
"AX c #A66FE794F72F",
"SX c #B4B8EEF0F865",
"DX c #ABACEBE8EF94",
"FX c #C9E49AF29809",
"GX c #C35E9A60AA30",
"HX c #CE2C9715B0D1",
"JX c #CD49BD59A6D1",
"KX c #C2A0AC40C38C",
"LX c #E53FCDF8B591",
"PX c #DA06DC8ADC46",
"IX c #C35ED295E744",
"UX c #D718EC07EE0E",
/* pixels */
"d.d.d.L.z.C.4 < > 1 eXlX[..X.XBXAXAX.X!.0Xf , , ; j.T.E.h.+.5.{ ",
"y.d.O.z.z.s.0 e +Xf 9XiX'..X~.~.cXNXmXE.0X,X0 e r &.+.+.+.6.8.' ",
"a.d.d.f.z.s.#Xr +X-X0XVX{.{..X~.AXmX|.w.FX,XOX+X+X9.c.+.#.| | ' ",
"d.a.m.J.z.q.oXOX+X=XFXIXxX'.AX.XNXNX|.6XwX;XOX+XoX8.^.+.} 6.{ ' ",
"b.uXJ.m.m.a.f OX+X#X9XgXNXSXAX{.ZXMXSXKXGX:XOX+X=X).R.6.| P.7.4.",
"p.M.uXJ.G.x.9.+X&X&X9XgXAXSXDXmXUXDX|.rXHX;XOX+X=X).R.6.7.4.] Q ",
";.;.a.m.m.G.1X+XOXOX0XtXK.].xXxXSXCX_.yXHX;X$XOXd Z.t.7.8.2.^ ^ ",
"H H ;.;.p.d.I @XOX=XeXkXK.Q.H._.CXCXQ.gXwX;X$X#X*.5.5.4.4.` Q -.",
"n G ;.y.;.y.0.d OX;XqXyXA.H.vXv.vXK.@.8XqX=XOXOX*.4.) :.W R W W ",
"z x q.H ;.,.H =X&Xr qXtXF.K.hXk.C.A.o.eX2X#X*XOX$.:.3.%.! h h E ",
"x x Z G n ,.J %X&X&X-X0XF.F.fXA.l.D.X.7X2Xi #XOX$.:.-.^ E h E $ ",
"V z l v n n n y &X;X;X9X,.<.IXiXD.j.:.qX3XOXOXa Q W E ! E E E $ ",
"k k V V S x G 7 OX&X;XqXw.<.PXLXVX>.D wX2X@X+Xa ~ ! ! h E $ o $ ",
"@ k z V S Z v B r oX-X5XF w.PXJXkX:.e.3X2Xr +Xf $.c $ T $ # # # ",
"@ @ @ z S V V A r oX-X5X*.&.<X@Xr 1.L 1X:X+X#Xa $.% & % # o # # ",
"k k k l V x J A r oXi 5XK ;.t XX+ ( D :X#X+Xr $.c % % $ # # # X ",
"z b M H ,.m y.m s e u -XK S.P >.i.o.Z &Xr e y <.) ) ~ j O O $ O ",
"G G Y H ;.p.X.X.f +Xe d 9.G.N.v.z.@.0.;Xe e r <.>.>.) _ ~ h W ! ",
"n H Y a.y.p.u.d.I w w r g v.c.H.v.c.e.-Xe e g ] 5.5.>.:.:.W ~ W ",
"Y H N.uXb.a.X.g.S q r r I vXcX].c.c.6X:Xe w w.k.Z.Z.4.4.:.] ] ] ",
"Y U uXuXp.n.u.u.n.e q r L ZXcXc._._.e.f q q &.[ 7.^.5.6.8.4.4.8.",
"H M.B.Y u.a.Y b.H 9 9 u g sXJ.C.A.Q.0.9 9 : D [ [ Z.4.[ 5.4.8.` ",
"Y Y Y u.d.u...N m 9 0 0 s B.e.4XgX[ 3 8 8 , Q / [ 6.| [ 6.4.^ ` ",
"g.f.Y g.g.O.....N 4 8 : y H S >X1XM < 8 8 5 '  .#.6.+.6.7.{ ' ^ ",
"pXG.g.g.O.O.N g.d.v = = 9 U S . < m > : : 1 @.#.#.[.E.R.}  . .[ ",
"J.dXG.L.G.L.z.J.uXU 8 : K dX8Xp 9.fX1X: : 5 T.T.`.nX`.[./.E.6.I.",
"pXJ.dXL.L.L.H.v.v.Z = : <.cXD.yXr.`.7X- < %.#.!. XW.`. X/.(.R.R.",
"dXsXdXG.L.L.H.dXH.~ < = 1.NXlXu 6 !.1.: < 3.P.T.W. X X X X(./.} ",
"hXsXsXH.].Q.Q.L.l.>.; * g SX8X  5 `.F = < 3.{ Y.(.MXbXMXMX(./.I.",
"aXaXsXH.dXH.zXA.j.<.; * 5 ZXiXB w.A.C * * -.{ I.R.Y.bXDXMX/./.I.",
"d.x.pXG.G.hXgXb.,.J < * > 6XV.>.i.<.3 * ; =.2.2.P.I.I.bXbX/.Y.7.",
"i.d.pXm.pXjXN.;.n J A 2 4 0.*.v v *.B a T =.{ ` 3.U.P.I.I.P.6.{ "
};
