/* XPM */
static char *blocks[] = {
/* columns rows colors chars-per-pixel */
"32 32 18 1",
"  c black",
". c #191919191919",
"X c gray20",
"o c #000000007F7F",
"O c #00007F7F7F7F",
"+ c #7F7F00000000",
"@ c #7F7F00007F7F",
"# c #7F7F7F7F0000",
"$ c #4C4C4C4C4C4C",
"% c #666666666767",
"& c gray50",
"* c blue",
"= c cyan",
"- c red",
"; c gray60",
": c #B2B2B2B2B2B2",
"> c gray80",
", c gray90",
/* pixels */
";=;:=:O$%%;:>==,>,>=;&+%$;:=;O:=",
"*;=:*;%%@&;:=,>=>=>=:&%%%&=O=&;O",
";*:*=;@%%&:>>>==>>>O:;@&%&===O=O",
"=;:=;;%&%-:>>=,>=,=:>-&#%;;;;&=;",
"*;>**;@&&&;:=>,=,>,::&@&%:;==:=&",
"=;:;>=&%@%;:,>,>,>=:>@#%%;=;;O;O",
";&;==:;@%%:;:=>=>>=::&&&%:;=;&OO",
";*&;*;&%%&;>:::==,:::@-&;O;O==O:",
"OO;**;;&@&;:;=:>=:=:;&%&*:;=OO&O",
"O;=;&=O;&%;;;::*::*;&%&-%=O%&OOO",
"&O&&O:&&%&&;;=>;=;;;-&&%O;O=OO&O",
"O&O*O;*@%;-;:O>:;;&;;&%%&OO;&O&O",
"o&O&&*O&-&&;&;,>:=&:;@-%O&&OOOO%",
"%O&*O&&O%%%;&&>:>O:@;#&&&OO&O&OO",
"oOo&&O&&%-;;O;;%%;&;@&&&&O%O%O%O",
"O&&OO&*;%%%;;O@%oO;@&%%O&OO%OO%o",
"%*O:=O;&&+%&%:;*:*&%%%%;OO*O;O&O",
"O&=*;:**&%%&&=:;==&&$%@;=:O;OO;O",
";O*;*:;=&%@%&=;=;=;&%%&O&;OO&&O=",
"*;;;=;*;&@%%@:>=;:;&@%;;=;=;O=O&",
"=&;;;*:=;%@%&>:;=:;&$%&==;&;:O=;",
";;:*=:O:O%%%O:=;;=&%$@;OO;===&;O",
";*=*;*=:&%%$%;;::=%$#$&&;=&O;=O=",
"==;:=;**O%%+%&&@@*$%$%O==;=&=;O&",
":;*=;*;=*;O$%&&.$O%$$%O=&:::=O=&",
";:;;:=;:;&$$&>;%;>&$%O:;:==>;==:",
";;:;;;=;:%$$O:=:;=;$$&;======:;;",
"=:;=;=;:=%$$;>:%O:&$%O=;:>>:>=;=",
":::;==;;;=@XO>: %=&@$;==>=>,>:=:",
";=:::;:==:$X%>:%;;OX%OO:=:=,>==;",
"*=:==::*;O%o%;:=:O%$%;O&;:;=>=:=",
";:>*;:;;*&%%&O;*O&%%O;;=O:;=::O&"
};
