/* XPM */
static char *flarge[] = {
/* columns rows colors chars-per-pixel */
"32 32 11 1",
"  c #191919191919",
". c gray20",
"X c #7F7F00000000",
"o c #7F7F00007F7F",
"O c #7F7F7F7F0000",
"+ c #4C4C4C4C4C4C",
"@ c #666666666767",
"# c gray50",
"$ c red",
"% c gray60",
"& c #B2B2B2B2B2B2",
/* pixels */
".@@+O++O++O++O++@@@XO++O@@#@O+X@",
"O++X.+++@O@@+.O#O@O#@@##@X#O@@O+",
"#+O++OX+X@X@@@@####@O#@##@###@@@",
"@#@@+@@@#@@@@OX@O+@X.+X+O+X@@O@#",
"@@@@@@@#O@@#@#O@+XO@+@O@#O++@+X@",
"++OX+X+O+@+O+X+. ...X@#%##@OO@@@",
"#O+@+++OX@+@+  .  .. O#OO##o+O@O",
"@++@O@+@##O%O       .@##$%O###@@",
"@@X@+O++O++OO X     .@##%%#O#%#O",
"O@+O@@++.+@@+     ...XO@#O@@#X@#",
"#%#@@$##+@@#.    .. .+O++O@##@O#",
"%O@@##O#O+XO+X.  ..  ##X#%#OOOo#",
"Oo@@OooO@@O@+X.  .   @O@@O$####$",
"O#@OO@#O##@@.   .    #####%##O##",
"##@##O@@$O#O+  X .. .O@O#OO##O#O",
"#O#X@@@#####O.. . .XX##@%%#%####",
"##OoX#@++XO#O     .  %O#%O%%%#O#",
"O#@O#O#O#@+@+ .    ..@####O###O#",
"%##@@@#%#@O@+...X ...+O#O$##@Oo#",
"#@@++O@@@O@@+X .+..O+$%#&%%O@#@O",
"XO@@@X#O@@##+...+++X.@##%O%XXO%#",
"#######%@OX#@XO.....+#O@##@#####",
"%%O@++@#@XO@+.+XO....@@@O@@O#OO#",
"#X@@O++O@#@@++@@+.+OO+O+X@#X@#X#",
"O@++O@+O++XO+@O@@OO#X@O@#@@@O@++",
"+XX+@@+++O@@O@#Xo@#X#@@@O@#OoOO@",
"@O+@#@@+##@@@@O#O#%#O@O@@O@o@O@@",
"@#++X@O+X#@O#@@#O@O###%O##@O###+",
"X@@@#O##Oo####%#%#%$O%%%%%%&%%O#",
"@++O+@O#@@O#$%O#%#%%%#%$%O#O$%##",
"+O++@@@@O##O#OO@#OO+#@@O$#%###%%",
"++++O@$#####@@oO##%OO%%O%#%%O#XO"
};
