/* XPM */
static char *flarge[] = {
/* columns rows colors chars-per-pixel */
"32 32 139 2",
"   c #1676117F0F99",
".  c #18B715C70EE2",
"X  c #14FF13D51397",
"o  c #16E016601903",
"O  c #170C18BE1651",
"+  c #1BB3163316D4",
"@  c #18E1177318DF",
"#  c #1B45196A1389",
"$  c #1C811AB0199C",
"%  c #2B6C15D50AA4",
"&  c #2D821AC40D44",
"*  c #23721E59164F",
"=  c #21D21DA01C4A",
"-  c #308918BB0BE9",
";  c #31611EE61095",
":  c #262A211317F7",
">  c #24B721F71CF6",
",  c #2C0921F413E3",
"<  c #2ABD25181CBA",
"1  c #34D122A313D2",
"2  c #30E3294A1E1B",
"3  c #3D6728D71BEF",
"4  c #224E22C52307",
"5  c #270329E72DEA",
"6  c #2A1825772150",
"7  c #2CE029F2241F",
"8  c #2A422B392D7C",
"9  c #29E62E933398",
"0  c #34E32D9E2404",
"q  c #38392F5124CC",
"w  c #373530D122B6",
"e  c #359E328E2D74",
"r  c #3A0032BD2659",
"t  c #3A6333AE29EC",
"y  c #403E3C8225B6",
"u  c #400B38D12C05",
"i  c #377D35D532D7",
"p  c #43F734352483",
"a  c #40DC37442DF4",
"s  c #43CE3B3A2CAB",
"d  c #49673EC62B6D",
"f  c #455F3D363239",
"g  c #48E13EBD310C",
"h  c #4B7C43632C80",
"j  c #4CB74495335E",
"k  c #4FF9463C38CF",
"l  c #4F4E4B16355E",
"z  c #4EFF49A9389D",
"x  c #5B2E49D82EFD",
"c  c #53C747FE32EC",
"v  c #50F0477C392E",
"b  c #54044C0F35A9",
"n  c #54DB4BFF3AF8",
"m  c #5B144E0735D3",
"M  c #5A8C4ED43BAA",
"N  c #5389508137E4",
"B  c #56F2511C3C68",
"V  c #5D1A51E83694",
"C  c #5CBF529B3D96",
"Z  c #5FB25A5E3E0A",
"A  c #6220522B37F3",
"S  c #62A9557B3DC6",
"D  c #65405B103F26",
"F  c #6A835A443F63",
"G  c #570D4F6540AF",
"H  c #5A3F50184184",
"J  c #5D81548B4313",
"K  c #5FE958404998",
"L  c #605659074332",
"P  c #635E5740436F",
"I  c #65135A834491",
"U  c #65365C414AC8",
"Y  c #6B7B5D274517",
"T  c #6C155ED14B39",
"R  c #720E5F1243DA",
"E  c #638F60F24CA7",
"W  c #6CE061484634",
"Q  c #6D0C62964CF7",
"!  c #686162EF509D",
"~  c #6E3B651D524E",
"^  c #7042686D5526",
"/  c #749662C34660",
"(  c #7417656F4CD6",
")  c #75E469884D5F",
"_  c #7A0667174CF3",
"`  c #7C4D6AB94E60",
"'  c #73BA66F85338",
"]  c #75706A79544E",
"[  c #76D76D5C5B71",
"{  c #78A26774505B",
"}  c #7BC56D375509",
"|  c #7BFD6EDE5B63",
" . c #77AB70E45B55",
".. c #7E04716A558E",
"X. c #7DB272A25C63",
"o. c #785C6F5F6147",
"O. c #7F0375E36464",
"+. c #81FE6ED34E7B",
"@. c #81966F13547E",
"#. c #848674155704",
"$. c #84AA75965C47",
"%. c #869A79895F55",
"&. c #897E750F562B",
"*. c #8B6177215C33",
"=. c #8C5F7AA25D85",
"-. c #91B27C605F46",
";. c #83BE767162EB",
":. c #86527A986352",
">. c #87FD7E656D4A",
",. c #8C8D7CEB64B7",
"<. c #8C2E7F096AB6",
"1. c #93057F2062CE",
"2. c #9173805C695A",
"3. c #8EB980DF66F7",
"4. c #8E5C828C6C21",
"5. c #8ED9842C70D0",
"6. c #94318266663B",
"7. c #948084EE6C34",
"8. c #965A8A926E93",
"9. c #9CD786106731",
"0. c #9A8486FF6C0F",
"q. c #9BBA8A136EA5",
"w. c #9211859A711C",
"e. c #97048C3C749F",
"r. c #96D78A097A34",
"t. c #9BEC8C3C72F0",
"y. c #9ACF8EBE792F",
"u. c #9DFC91D77608",
"i. c #9C7690FD78BF",
"p. c #A33B8CB16D73",
"a. c #A3118F12723B",
"s. c #A4EE92D3777D",
"d. c #A68A954B7B71",
"f. c #AD6598827749",
"g. c #A92696C6798B",
"h. c #ADB59B137D89",
"j. c #A7219709814D",
"k. c #A9CD9A838380",
"l. c #B28D9D7980DA",
/* pixels */
"h Y C M M J c P b C W T b n I C S ( Y Y P h I Q I ) $.( } J C I ",
"S M n g h C b J Y I ( ' I l Q } #.( Y @...} <.4.I Y :.] { ' C b ",
"<.U C P C n j c j S P ' [ Q ' ;.<.,.{ ( ..] } 4.[ ] 4.X.:.| ] ' ",
"$.O.] [ T U ! ~ [ ^ ' ( ) Q C C h m I m h h y j C b j W ' U ~ >.",
"~ [ E U U [ o.[ Q U ' %.T ,.:.} b b ( F V ' I ] :.) l C E I C E ",
"I C J z b h M P b C C W v 3 p e < 2 e i 0 ;.w.t.,.,.X.N Q Q ] U ",
"$.L B L L n M Q I S Y _ M - ; > $ + 4 5 4 Y *.&.#.#.#.Q b J Q I ",
"X.I U L ~ I P [ ;.| @.r.I - & O @ $ @ = 7 ] ,.-.p.9...,.8.7.' ) ",
"{ I C V Y P b b S C b ( Y - % X @ X X 4 8 ) 6.3.0.s.,.7.$.3.4.W ",
"$.Y C S P S M b c V I ] n % ; 4 4 5 5 9 8 m V ^ ..) ) ) } I  .} ",
"0.<.| } [ X.O.{ m D $.%.h % ; @ @ 5 5 4 < W V h Z W } #.} Q Q ,.",
"t.$.] [ ;.;.;.} Y d C Y M - 1 @ 4 9 7 O $ %.%.Z ..u.6.X...) E 3.",
"} } ' ( T { } } @.` / Y S - 1 = 4 8 < X > I ` / D / q.u.%.` ..=.",
"{ *.( Y { T } $.-.*.&.R s ; , = 4 6 = * : $.=.9.8...6.6.=.&.6.} ",
"| | ( Y ' | Q ;.*.$.( ) n > < < < < < > < ) ) ..3.] ) ..$.$.#.&.",
"@.$.;.T P o.U O.} ,.:.<.J < > < < 6 < 7 7 8.&. .i.5.4.t.0.:.%.3.",
"*.>.P V n { T J m m ( *.U . . # * * : : < p.-.7.y.i.i.k.j.e.>.) ",
") ,.[ | ' ;.:.'  .U M ' M * < = = * < < < @.` ,.%.$.] 4.%.w.| ,.",
"y.0.<.o.| @.<.r.,.$.Y ] J q q t u 2 q r 2 Y #.,.6.,._ &.) / I :.",
":.| ~ j z J ' | ( } | { j < , a s s d r w } p.u.p.t.t.} { &.I I ",
"b J ' ~ ! J ^ ' P | 0.0.g t a j v n j a t } ..$.t.,.6.V M :.>.;.",
";.>.>.;.;.>.w.r.U I P ,.P a s a a f a a g %.( _ $.*.} %.) %.4.4.",
"2.>.;.' J K U [ T J c Y U a g g v g a t u X.X.} R { _ R _ &.@.4.",
"<.P [ ^ P H v ^ ' [ [ ' G G U U H k G z z Q Y b C P T F Y / S ;.",
">.P n v H ~ P U P G M J M Q ! ~ ' Q { ( T T Y W ' Q U ! P T U C ",
"z f f G U o.H v J S I Q Y P R W M ( ] T { ) Q _ } | { { P P T I ",
"! U H U O.| U U ] ] [ ' ] [ $.#._ } ,.=.) ( / A S F / R / Y Y _ ",
"~ o.P H T Y P P T | ] ( >.( ~ ,.&.` &.9.*.-.=.&.&.,.=.*.0.i.%.Q ",
"K K ~ P T T ;.;.T ~ ] %.4.,.p.0.6.s.s.t.3.7.h.8.7.8.s.h.h.8.=.&.",
"n M U I J ' @.,.] Q ] 3.1.0.p.p.a.0.9.1.p.8.p.f.g.8.8.3.e.3.6.,.",
"z n M C T ' { _ | { ' ( Y W m D @.+.m A #.) D W ) %.e.e.4.:.8.y.",
"K M C J S _ | ;.<.w.q.2._ ( ( ( &.p.p.+.=.u.8.%.u.8.k.i.:.] Z b "
};
