/* XPM */
static char *mdltest[] = {
/* width height num_colors chars_per_pixel */
"    50    50      254            2",
/* colors */
".. c #0a0305",
".# c #4f8429",
".a c #0c4228",
".b c #634518",
".c c #384874",
".d c #502011",
".e c #606427",
".f c #1c642c",
".g c #78ca58",
".h c #918229",
".i c #212412",
".j c #394418",
".k c #5e6e69",
".l c #312415",
".m c #4b85af",
".n c #896827",
".o c #384442",
".p c #64a43c",
".q c #627319",
".r c #2e333f",
".s c #3c5417",
".t c #708628",
".u c #864427",
".v c #313419",
".w c #675418",
".x c #74220c",
".y c #5e643f",
".z c #406720",
".A c #91a444",
".B c #6e8759",
".C c #4b7526",
".D c #504717",
".E c #5f7544",
".F c #4f331b",
".G c #3f3819",
".H c #0c3410",
".I c #505717",
".J c #61553e",
".K c #2f0e0a",
".L c #40290f",
".M c #3f5743",
".N c #5c2e44",
".O c #5c844d",
".P c #68341a",
".Q c #75441f",
".R c #77551d",
".S c #426b74",
".T c #3c6254",
".U c #786918",
".V c #ac8e3c",
".W c #777447",
".X c #709828",
".Y c #8e954a",
".Z c #3d4428",
".0 c #867521",
".1 c #30342a",
".2 c #50681f",
".3 c #094a47",
".4 c #776b43",
".5 c #503c17",
".6 c #719759",
".7 c #84b22c",
".8 c #13160b",
".9 c #614331",
"#. c #665530",
"## c #aea354",
"#a c #4e442b",
"#b c #58963c",
"#c c #102624",
"#d c #23331b",
"#e c #748894",
"#f c #3f5528",
"#g c #808826",
"#h c #4e542d",
"#i c #446cb0",
"#j c #22343b",
"#k c #537346",
"#l c #5c6c21",
"#m c #617c4a",
"#n c #3f2a1f",
"#o c #515a41",
"#p c #302b27",
"#q c #5184c1",
"#r c #797323",
"#s c #3f3927",
"#t c #5e891e",
"#u c #77a344",
"#v c #636c45",
"#w c #17582b",
"#x c #524c47",
"#y c #8cb450",
"#z c #2f1a0e",
"#A c #4f6732",
"#B c #89754c",
"#C c #909858",
"#D c #3e4c28",
"#E c #624c1b",
"#F c #527989",
"#G c #374357",
"#H c #2f3c46",
"#I c #401b0e",
"#J c #313b19",
"#K c #4b7b27",
"#L c #5c3114",
"#M c #609458",
"#N c #1f140a",
"#O c #6c6422",
"#P c #232c16",
"#Q c #627ba2",
"#R c #808659",
"#S c #4e4c2c",
"#T c #505c2d",
"#U c #542816",
"#V c #8f8950",
"#W c #394b19",
"#X c #776828",
"#Y c #7aa354",
"#Z c #3a5773",
"#0 c #ecf654",
"#1 c #312c1a",
"#2 c #62742d",
"#3 c #718846",
"#4 c #85571e",
"#5 c #777c4b",
"#6 c #323b29",
"#7 c #615c2b",
"#8 c #2c4818",
"#9 c #645c18",
"a. c #506b70",
"a# c #9cc757",
"aa c #783524",
"ab c #5e8691",
"ac c #6c9ac4",
"ad c #bcb24c",
"ae c #a44234",
"af c #505678",
"ag c #7c7a64",
"ah c #284443",
"ai c #92a464",
"aj c #316927",
"ak c #a0682c",
"al c #8cd664",
"am c #4e7aa6",
"an c #5c93c2",
"ao c #71ba54",
"ap c #944e54",
"aq c #2a571f",
"ar c #a17e4c",
"as c #647b82",
"at c #619399",
"au c #c08c38",
"av c #a4b454",
"aw c #200d07",
"ax c #896b47",
"ay c #5c3e44",
"az c #14763c",
"aA c #413d47",
"aB c #a18939",
"aC c #516359",
"aD c #739346",
"aE c #9f9a44",
"aF c #99782a",
"aG c #445694",
"aH c #8c321c",
"aI c #9ca25c",
"aJ c #202a2a",
"aK c #a2995d",
"aL c #81b759",
"aM c #683c1d",
"aN c #4c5eac",
"aO c #54873f",
"aP c #6ba754",
"aQ c #3c5458",
"aR c #648670",
"aS c #2b432c",
"aT c #8ac552",
"aU c #7e9557",
"aV c #7f8a4a",
"aW c #62863b",
"aX c #985620",
"aY c #c4965c",
"aZ c #403644",
"a0 c #a08a50",
"a1 c #a0d05c",
"a2 c #844c24",
"a3 c #605d45",
"a4 c #627082",
"a5 c #547ec4",
"a6 c #5892dc",
"a7 c #426530",
"a8 c #6c867c",
"a9 c #416d8f",
"b. c #4c5c5e",
"b# c #4c6b88",
"ba c #2c4659",
"bb c #2f1e29",
"bc c #5f89a9",
"bd c #2c7634",
"be c #104c24",
"bf c #619d57",
"bg c #81ad5b",
"bh c #406177",
"bi c #4e3c27",
"bj c #2c3e64",
"bk c #54879f",
"bl c #64942c",
"bm c #4c3e6c",
"bn c #3d4c46",
"bo c #5cae44",
"bp c #687c18",
"bq c #405d15",
"br c #90ac50",
"bs c #618c55",
"bt c #754d21",
"bu c #8f9c47",
"bv c #8c7e34",
"bw c #644d2f",
"bx c #afae57",
"by c #243b1a",
"bz c #849284",
"bA c #405b27",
"bB c #79ab39",
"bC c #887d4d",
"bD c #374e59",
"bE c #5f7c2d",
"bF c #7a3c26",
"bG c #b4be6c",
"bH c #8eac5c",
"bI c #9fbc67",
"bJ c #516b49",
"bK c #789c48",
"bL c #386294",
"bM c #415c5c",
"bN c #244e24",
"bO c #0f0d0b",
"bP c #44468c",
"bQ c #944634",
"bR c #6c6442",
"bS c #547423",
"bT c #6c7349",
"bU c #6c6c22",
"bV c #6c7c49",
"bW c #547b27",
"bX c #6c5c41",
"bY c #7c922c",
"bZ c #fcfe6c",
"b0 c #775b24",
"b1 c #223c3e",
"b2 c #547b44",
"b3 c #7b7d28",
"b4 c #8fbe51",
"b5 c #1f1c11",
"b6 c #843e34",
"b7 c #a4ae74",
/* pixels */
".4.E.y#.#B#V.4#vax#2#V#sbT.j#T#T.Gbr#s##aWbV.E.EaVbraIaDaLbVbE.Y#f#hbSaS#JaD#8#8.jbE.pao#ubg#ybW.p#3",
"#hbvbXbCa3.WbR#7#T.W.vbU.j#V#h#A#h#JbH.Z#.#A#l#C#Y.BbubVbAbE#5#Pavby#J#P#Pa##1.i#sbBb4#7aWaO#Yb4bS#K",
"#S.Zar.4.D#T#V.4.G.va0bi.Zb5.j.l.i#s.v#V.Z.1bR#r.sa7.tb7#a#A#J.l.EbE#Jby#PbEby.l#SbBbA.Bbl.2.CaW#h#W",
"bR#s.v.H.G#SbR#1#T.Y.4.5#h.G#d#s.vb5.G.W#C.s.1#f#d.j#J#1#P#v.G.G#T#fbp#8.s.v#W#W.G#A#f#8aj#W.z#W#D#K",
"#5bT.5.9ap.N.D.yaKaV.La0#7#D#n.I.1#SbR#z.W.A#3#Uaub3bS.2.ZaW.tbC.D#f#6#a#faS.D.v#l.##M#Wb4axay.yaOaT",
"aK#Vbw#S#S.G#V#haV.ybR#7#n.4.Z#J.W.v#..5ai#LawaMaF.G#r#d.eaD#3.l.j#Caq#f#Wbu.Z.Ga1b4b4.z#u#A#W.t#fao",
"#o#7#5#s#JaV.i#XaUaK.4.5##.G#1.G#naE#1.EbG#N#z.L.D#9bq.##rbg#MbI#a.j.v#a.e.Z.4bYal#Yb2.2bA#WaoaSb4.g",
"#V#S.1##.e.FaJ.W#D.WaV#V#s#naKbx.L.v#5#v#3#z.K#L.bb3#l#w#raWaDbB.A#a#R#y.4.y#lala##M#Aby.ZaW#Dbq#u.z",
".ybC#s#1#D#1.J#s#h.4#vbTai#5.Y#CaVbT#5aUaU#TbO#I.4#1.8.3.L#AbsaU.O#2aD#ub4aW#k#Y#YaWbg#J.v.z.v#Y#P.z",
"bC#JaK.G.i#P.i#V.iaV.G.B.WagbT.E#m#m#3#T.D.5.L.R.UbUbYaq.2.CbA.AbfbV#3aU#MbrbgaD.CavbN#2by#Pby#J#J#P",
"#s.W#P#7#1#S#a#saI.v.s#SbXbs#5#C.y#5#U#E.QaM#E.U.j.0.h.qbB#tbq#t#tbHaPbg#baD#W.b#SaqbKaS.z#J.2#W#Wal",
".l.4#1#p#PbR#R.v#n#I.G.5.w#l.e#f.2#UaMak.x.b.n.0.R.h#g#9#t.XbS.#aOajbB#U.Q#D#hbqaq.J#3#J#A#daWb4aq.G",
".l.G#S#.#P#S#1.v.G#E.5.D#O#S#J.2#1.d.d#L#U#L.R.w.IaEb3b3.q.7#t#t#tbB...P.Qa2a2#a.bb5#WbW#1by#A#1#W#D",
"#.aK#1#s#X#p.v#S.5.QaY#1#7.I#TbN#8.L#Lakb0#L#1aF.U.R.D.U.tbSbpbp#K.C#N.F.QaM.b.I.D#va##T#d#3#1#faW.Z",
"bi.Faw#1#D.1.4.GbC.Q#L.F.F#S.D.H#J.w.b#U.F.u.G.L.D.D#4bv.U.j.j.p.2#8.L.F.F.l#X.w.v.t#a#1bKbqaS#f.GbK",
"bu#n#s#I.G.e.F#V.9#U#U.F#N#z.G#c.2#N.8.8.l#z.i#L.9.Fbt.5b5#1b5.8.i.L.L#N.8b5.j#T.2bK.GbY.Z.jaW#Ja1#h",
"bs#V#nbw.4.4#n.l#v.d#U.L#z.K.8.i.WbVb5#xb5.8#Nbi.9.Fa3.jbOb5b5.8.C#fawbO.8#P#W#8.C.gbg.Z#a.t#5#n.jaO",
"bX#k.E#VbCbT#vbC.B.W#s#U.e#PbR.j#5#6#J#saw.C#L.lbi.l#n#n.a#SbEaVbT.E#T#J.I#UbSbAbK#A#Mbl.6#YblaLbsaP",
"#R.k.JbCa3#obC#A#5#A.YbF.G.G#f#h.v.j#daU.2#1.d.Lbbb5#n#4#z#6#fbV.j#v#k#P.vbF.X.1#TaW#MbJbK#ma7aP#b.6",
"#h.ya3.4aC#7#R#saMbWbe.i.I.y#T.y#h#6.y.Zb7aw..#X.w.Ibdbq#z.2aU.1#Y#d.j.v#Paa.2.8.U#SbWbT.Bb2bEbH#h.#",
"bR#aaV#D#T#T.ZbUbR.R#E.e.VbUbE#6.y#6#z#v.Zbi.i#U.b.RadbUb5a3.1aK#d#d.j.K.R.i#9.A#l.U#h.zbW#Kb2aO.2bn",
"#paJ#S#1#d#SbT.1#E.PaHaB.e#W.e.ibwby.G#7aV#Jb5.5.n.w.w#N#2.i#1.G#S#d#D#I.u#4.U.I.s.4#d.s.vaSbA.B#f#J",
"bTa3#sbCbC.4bi#Aaw#Ua2.w.5.2.2.f.va3bi#9#0#O###4.DbZbv.5.b.R.j.q.i#WbJ.xb0#E.w.s#WbS.E.Z#YbKaV#7aWaP",
"bR#V.4.i#o#SbCbC#5#IaB.V#rb3#O.H.y.G.l#E.j.2.I.wbxaFbZ#4#X.U#9#9.v#C..#U.wbt.bb0.RbqaLbS#k#kbAbI#f.6",
"bT#RbT#S#zaK.1.4#R.d.P.QaM.D#7be#n.Z#I.l.l.DbUbF.5#4.U#I.l.D.ebq.Z.v..bt.R#E#9#r.2#dbg.C#6#zbIaJ#J#Y",
"bT#5.1a3a3#s#sbT.yb6.PbtaFb0#OajbC.1.F.Q#4.0#9.G.F#nby.P.bbtb3#9ai#5..#4.b.n.0b3bY.ObK#dbK.C.Z.iaD.E",
".W#R#a.8#6.l#1#s#TaHbF.R.n.n#T.zaWag#m#z.D.D.I#NbO#P#c#U#Lbi.j#PbK#v...Fbw#X.bbv.q.Ebg.1#m#D#1bA.1.C",
".Y.1#xb5.G.v#nb5ay#L.L.Lax.D.U#J.3#C#5#p#s#W.2#d#J#o#h..bi#I.L#1aDbs#IaM#Eb0#l#9.D#f#6#1#daS#J.v#d#x",
".1#1#DbT.1.v#1#C.D.9bt#L.F.L.l#JbJ#v#D.Z.F.v#3#h#P#d#J.i#L#E.s.EbI.O.K#1.l.D.5.G.G#Dby#d#f#J#J.v#D#f",
"#Rbw#pb5#p#h.W.vbbaM.F.5.L.L#9#KbA#h#s#P.Q.IbAbT.i#1#6#J#U.5.s.Mai#T#z#9.b.F#W.s#9#K#7#W#3.vbJ#Y#W.l",
".G.l.v.4#d#a#p#6.G.J.Gbi#a.D.Iaz.i#P.j#vaM.CaS.Z#hby.v.lb6#1.j#PbI.i#6#I#LaM.L.G.L#J.vby.vby#faAby#s",
"#s#s.v.1#s.W.v#v.l.G#RbFbt.L.D.a.Z.Bag.6btaWaV#d#s#s#o.ibF#E#A#m#D.6...D#W.qb3.IaD#v#D#c#D#JaU#J#m.v",
"bC.G#n.i.1.i.G#n#B#s#oaa#U#9.O.D#T.1.BaC.Fa7#n#S#D#6#J.Z#L.b#J.O#k#f..#z.D.jbp.y#f#f#s#n#u#6#P.i#d#3",
"b5#n#p.G#nbXbb.va3#x.B.d.Q.5b0#7.Z#8#x.B.F#A#S#J.J.l#1#n.d.D#d.B#D.B...w.2#lbpbfaCbJ#n.E#s.v#v.v#WbR",
"#m.y#N.4.l#.#s.l.Z.Z.Ob5.P.F.lbq#C.E.ZaR.F.s.Zbi.y#faV.v#I.9#M.E#D.Z#6#1.5.w.j.6.E#MaW.Z.y#1.e#S#1.s",
".4#m.y.Jbi.v.y.ybTbTbC#f.i.9.n.i.y.i.2.q.i#c.a#T.G#s.D#zbO#J.s.2aU#P.v.5.vbt#DbAbV.Bbs.E#T.D.v.v#v.O",
"#o.kbT#obV#vagbn#va3.Z.l#P#1bAaS#1.v#nbt.w.A.q#T#k.B#o..#1.R.Uaq#6bg#5.v#1bE#A.J#m#m#M#3#v#M#m#T.E#m",
".Z#1.M.EaCbT#6#V#S#6bb.v#s.Z#D.W.1.K#IaMaF.G#b.BbJ#A.6aw.L#E#l.2.v.ibO.i#1aDaU.B.G#D#6bJbsb2.O#k.6bA",
"a3#5#o#D#D#h#f.jaZ.1.l#p#6#o.G#s.y#d.Kar#7#9.z.v#h#f#A..aM#E.G.I.Z.i.v#J#P#6#D#S#P#6bK#8a7bAa7.Ca7#s",
"b5.i.GaZb5#SaSaJ#paU#s#1.vbR#P#P.4.Z.d#UaM.5be.f#p.l.L.KaEb3bq.2#D#JbO#PaJ#1.i.1#p.8#PaS.1.i.M#v#d#p",
"#D.r.y#pb5#o.y#v#7#va3#z#o.v#5.Wby.F.K.P.GbU#w#8#6b5#J.K.R.nbUbE#t.1bJ#J#saS#z#p#1#k#6aW#6.i#Ta7aWbJ",
"a4.oa.#Hb5b.aQaCb.#Qbnb..i#H#H#j#jaH..aM#Lbt#waqbjbD.D#I#hav#l.2aqbP#Gbab1.r#HaG#ia6an#i.c#Z#ZbL.S#i",
".raCaJ.r#p.r.r.Masb#b.a.as#6.jbnasbQ.xbtau.z.z.2aQaJ.Q.d.F.RbU.2.#.m#Q#Za.a.#ia6acam.ma9bj.mbL#Zamba",
"aJ#p.o.o#H.raJbb#xbMaSa4#Qa.#F#Fb#aa#I.w.G.2#KbSbD#j.G.dayai.R#S#K#Qama5a6a6#qanbLbLbja5.mbL#cbjb1b1",
"aJbn#d#6.1ah#paQasah#jaJb1#Hbn#G#6aXaX#4b0#EbubqaQb1bt.d.0bw.v.nbW#Z#jbjba#Zba#HaQanam#H#H#Zb1#Gb1bD",
"aJ#6#d.oaZaCaybhasab.Mb.#H#paJa4b.aaa2.D#E.e.q#8b1ah.Qaw.Qb0.5.t#ban.TbhaQ.r#jam.Sa5#qa5aJ#Hbjbcb1#j",
"aC#xaZaJagaba8asbnas#6.k#j.1a.ah.M#U.L.0.0.s#g.sasbJ.Pae.n.naF#r.X.katb1bcbDab#F.rbcbkbkbc.m#jbhaNbc",
"asbh.kaC#F#ea3aR#6#j#jaJ#daJ.1#p.r#I.b.UaF.Dbtaqbk#F.u.K.Db0.n#9bo#ZbDbk#ZbDbM.Satb#bmbMbD.mamatanan",
"a4.oa7.ka4.r#H#H.r#j#o.MaJaJbnb1aA.d.G#O.D#9.Ibyaf#e.d#IaB#O#9.n#Wah#Hah.S#c#jbD.Mba#GaSbk#H#F.S#F.S",
"bn#p.1.kbzaA#6#p.M.1#o#j#6aQ#p.i#H#p.5b0aF.D.IbN.k#H.o#N.U#9#9.U#w.j#jbM#6bDb1ahbMaSbDah#pb#asbDahb1"
};
