/* XPM */
static char *mdltest[] = {
/* columns rows colors chars-per-pixel */
"32 32 256 2",
"   c #1EF5220D1498",
".  c #28F71CF90ED3",
"X  c #32BD16950B3C",
"o  c #25F5212D0EA8",
"O  c #2804291C1670",
"+  c #2C5D38461B40",
"@  c #34792488138A",
"#  c #34682B31161A",
"$  c #33862F8B1A46",
"%  c #3C5E2C1A151A",
"&  c #3A8929E11961",
"*  c #34D8332D1D1C",
"=  c #33593AE21CC7",
"-  c #3C703BF51DD2",
";  c #3B5E341D18A9",
":  c #2DF92CBC25F4",
">  c #2B5536472925",
",  c #2F973DFF3C31",
"<  c #2DB7367A356A",
"1  c #33AA2E6822BF",
"2  c #39DA2FC720CD",
"3  c #34753473237E",
"4  c #33B03BD5229C",
"5  c #3C7D3CA12288",
"6  c #3CE23E932931",
"7  c #3A74345520A2",
"8  c #32C23C4F3B11",
"9  c #353D3948350C",
"0  c #263E3D8C4237",
"q  c #37833FBC491B",
"w  c #34AB43301CBA",
"e  c #36624B6E1E22",
"r  c #3BE7478F1CA8",
"t  c #3E4258211EAD",
"y  c #29A7472D2925",
"u  c #2EF848143D86",
"i  c #299C56B62393",
"p  c #359742CE238E",
"a  c #3746432D28C0",
"s  c #3CA2437F2490",
"d  c #3CCF44662A09",
"f  c #3BA34C53248A",
"g  c #3D424BEA2B6C",
"h  c #33A8491A26FC",
"j  c #3B0C4717382D",
"k  c #3E7C52A522F2",
"l  c #3F3E576726F9",
"z  c #350C511D3B72",
"x  c #3F9E62273DC5",
"c  c #300445D24808",
"v  c #3730496C48E1",
"b  c #36874B7E5577",
"n  c #3E5259D5452E",
"m  c #39FB558A5915",
"M  c #2C06445856D5",
"N  c #2F414D9B607F",
"B  c #357B4E28676B",
"V  c #3A6D57C66A9E",
"C  c #383658AE7607",
"Z  c #3FEE63BD6C56",
"A  c #44722CEC1473",
"S  c #4B282FB416B7",
"D  c #45982C0017C7",
"F  c #45D533C7157E",
"G  c #43C8348F1CA2",
"H  c #4CF5375B1EDC",
"J  c #4E7E3C361806",
"K  c #49063A0E1C38",
"L  c #55732BC2172E",
"P  c #5380339216AD",
"I  c #5D0E3E471D54",
"U  c #578F36DB1AD4",
"Y  c #40E1371121E2",
"T  c #42973C7223B6",
"R  c #41D03E6C28E4",
"E  c #4BD43E9829DC",
"W  c #56F13BCF2496",
"Q  c #625736381AF7",
"!  c #6BE240021D40",
"~  c #668E39171A46",
"^  c #733E34EF214C",
"/  c #43B645661A6E",
"(  c #43B54C871C0A",
")  c #4BF544451AD9",
"_  c #4A624AD21B13",
"`  c #4E60520C1C00",
"'  c #459054FD1F31",
"]  c #5BED46061AF3",
"[  c #55CA47501A95",
"{  c #53E1545A1C91",
"}  c #581756D01D77",
"|  c #43C144CB248C",
" . c #43F4437A2B75",
".. c #44174AAB2479",
"X. c #44C94C852BA9",
"o. c #49C94256264D",
"O. c #4B0745AE29DD",
"+. c #4C224CE32CC1",
"@. c #4C9B4D63262D",
"#. c #4DEB4D4F32AF",
"$. c #441E4564336E",
"%. c #43E65368242A",
"&. c #450C54522BF4",
"*. c #44305AFA251F",
"=. c #4DD554872CBB",
"-. c #4BDC5ABB23E3",
";. c #4B165C492C20",
":. c #49B8573027CA",
">. c #46E55561358B",
",. c #4D9D5374334C",
"<. c #4CD15D113304",
"1. c #481C5B1A3574",
"2. c #558745672C05",
"3. c #53BD4B962DB6",
"4. c #57FD4AD3264C",
"5. c #53084D603449",
"6. c #5B1F4A053283",
"7. c #53EF54FF2C40",
"8. c #53DD5CC52D32",
"9. c #5D62523A2FB5",
"0. c #5D9C5EBF24EF",
"q. c #5B255DA02C32",
"w. c #57DF55CC23A4",
"e. c #54CB55A0321E",
"r. c #53415CDD32D4",
"t. c #5BA355A83502",
"y. c #5D855E333477",
"u. c #5F645E2E3941",
"i. c #5588562F3A5A",
"p. c #5D6D63111DBD",
"a. c #5A8F69A41D41",
"s. c #4CA3637A2BEE",
"d. c #482267552707",
"f. c #4E8863423692",
"g. c #49EF68A53427",
"h. c #4F0D71AF3504",
"j. c #5E776370276D",
"k. c #56346889296E",
"l. c #5C6364043DA9",
"z. c #594E6CDC3328",
"x. c #59EA6AA83BF9",
"c. c #55F368943680",
"v. c #5C2673382EDB",
"b. c #534A75022AA1",
"n. c #575E735C3B49",
"m. c #5AE27AB73BBF",
"M. c #5888761B351B",
"N. c #67C247241C1E",
"B. c #66935B151CCA",
"V. c #6BE25C3B1BE0",
"C. c #69A854AA1B5E",
"Z. c #737647971CCF",
"A. c #752857961DE0",
"S. c #65774B432281",
"D. c #642453622156",
"F. c #675358B027E2",
"G. c #648C55BC3344",
"H. c #62E35BF53487",
"J. c #68E75AF8372B",
"K. c #734443D22423",
"L. c #73114F882A86",
"P. c #759758B524EE",
"I. c #635D61591E84",
"U. c #62956D4D1E93",
"Y. c #725A62E61DC0",
"T. c #6C39670224A1",
"R. c #66CA666C260B",
"E. c #63B662F53577",
"W. c #65B066193C96",
"Q. c #6C3266AE3D68",
"!. c #6CE169D53CD4",
"~. c #64196C7A3826",
"^. c #65A377D8282D",
"/. c #64AE75203571",
"(. c #647D74B23B62",
"). c #64A27C1B3C4F",
"_. c #6B2F78143BA8",
"`. c #7A47680B267D",
"'. c #71D06A3C3955",
"]. c #70BC63023AB6",
"[. c #76D9789423D3",
"{. c #72BB758D3E4C",
"}. c #4B624F3A4AD1",
"|. c #421E49E34699",
" X c #48194CFD5272",
".X c #4A7857684AA5",
"XX c #45DA5A6A5748",
"oX c #409C5D5969A8",
"OX c #478E59B16303",
"+X c #414D5E897DD6",
"@X c #4F1D65974223",
"#X c #573D62764599",
"$X c #5E3368374600",
"%X c #5AA76A1D4676",
"&X c #5339639159F2",
"*X c #5C167A1344E4",
"=X c #5A8576084518",
"-X c #489B68A96BE8",
";X c #449464DB7D6A",
":X c #47BB68E678BA",
">X c #586E68D36A6A",
",X c #573E6B1F7462",
"<X c #6C216D1D438C",
"1X c #655468854538",
"2X c #6B18768E4577",
"3X c #6ED77AF24A70",
"4X c #637075F847B1",
"5X c #696271BA50F6",
"6X c #74BD7B814D6D",
"7X c #7A157A804871",
"8X c #765968BB42D7",
"9X c #651D62DB622A",
"0X c #665D75C07150",
"qX c #403E69399663",
"wX c #435659A9842C",
"eX c #46726AAB982A",
"rX c #46ED71028E5F",
"tX c #4E5477829859",
"yX c #53447B9D8ED7",
"uX c #51CD7AA4988A",
"iX c #490274A1A193",
"pX c #4E2C7ACEB10C",
"aX c #51597CAFA12C",
"sX c #5B36856924F8",
"dX c #5C7D85A83621",
"fX c #59E482703840",
"gX c #61E880841DDF",
"hX c #6C058C9A29B9",
"jX c #62088163332C",
"kX c #626E8A353D09",
"lX c #6916870B3853",
"zX c #6ABE9BCC3D39",
"xX c #7E7386113006",
"cX c #5DDF875E45AD",
"vX c #591E81F279C9",
"bX c #63E984224355",
"nX c #6B048A9C45E7",
"mX c #699D981F488D",
"MX c #77B0882748CA",
"NX c #71BE8A6E51A7",
"BX c #760C98834BEF",
"VX c #753B9AF2509B",
"CX c #67D889415313",
"ZX c #766FA3D04B73",
"AX c #70A6A5254F41",
"SX c #55648413AC2A",
"DX c #545C85CEBDCB",
"FX c #831A484C209B",
"GX c #81D05C7C2697",
"HX c #904C787B2C87",
"JX c #88D381942B67",
"KX c #840A82004E9F",
"LX c #88C88EC05064",
"PX c #8A859E9253B8",
"IX c #85C7B62B4F13",
"UX c #B567AB234561",
/* pixels */
"!.!.8X7XQ.!.~.9.r.8.:.(.{.(.(.BXPXBXnX/./.:.p *.s.+ dXzXmXZXzXkX",
"7.Q.H.y.'.+.E.4.| - * ..W.+.H.v.z.7X7...7.s.+ t k * ).m.v.sX/.*.",
"W.o.E 6.5.{.'.F.s - * T H._.7.w.-.( &.j.@.-.' e w / b.d.M.7.s.fX",
"KXJ.2.6.E.MXQ.G.9.5 7.4.t.'.F P.I.-./.nX7.8.f ;.7./.IXdXjXs.b.AX",
"!.t.H.+.3.2XKX'.3.'.4.q.3X9.X ] p.d.xXVXnX7.(.E.~.IXZXs.%.h.b.mX",
"!.t...* +.e.!.6X6XLX3X2XnX7.@ D.( y ' kXBX).PXBXnXZXBXg.w f d.e ",
"t.r.- - e.y...y.3X6X2XE.S.~ N.V.[.^.sXb.lXmXVXmX).k.M.h.h e t g.",
"T O.3 5.+.K F [ 0.s.w.L Z.~ A.T.JX[.gXsXsXdXw.D.7._ X.s.e :.b.t ",
"G.O.o.T 7 [ P.2.w.f w L Z.~ ] V.`.T.hXgXgX*.A ! Z.[ q.v.k &.g ;.",
"G.@ ; @.G.J.~ S G = w F D S A [ N.V.J w t ; @ @ / w.v.w.k.l ;./.",
"3X6.G.J.3.G.L A @ O 8.- : o # W W - o O e r .   w d.mXm.k.).r.m.",
"5X1X7X<X<X2XE.W - X.:.p +.r S & # K * g.(.z.h K 0.s.m.cXnXcXmXmX",
"$X1X1X#Xu.F.-._ 0.r.X.d $X+.@ ] -.s.K c.c.g = D w.{ R.M.bXm.nXh.",
"E +. .,.7.4.! HXR.%.O.= y.7.& C.GX} s | =.+ A N.B.k.0.%.*.g.n.l ",
"1X5.H.J.u.Y K.P.p.t f E T.JXT.`.UXP.C.` / X.U Z.C.` k.h.*X).2XcX",
"6X<XR W.<XQ.Z.GXF.' g ; A _ F.P.HXA.[ B.-.| A C.C.Y.d.kX&.x.f.m.",
"3Xi.E R O.J.^ P.GXs.x.5.I C.[ # $ F ~ w./.r.D P.Y.[.bXn.g.&.h n.",
"W.$.: $ 2 W Q S.F.` x 3XT / ' O a O S ; x.c.D S.F.B.;.d a = + X.",
"e.6 6 5 i.E ~ J F _ s.>.5 J c.p + # P ' NXl.% J / / ' r &.h ;.p ",
"E 7  .O. .Y 2.2.) t y X.t.j.&.d 3 G W r (.%.% ] [ / _ w w &.>.5 ",
"+.2 3  .R 3.t.^ ] -.f $X5Xq.=.d 6 5 ~ ;.@Xl o _ ^.z.<.3 &.g p <.",
" .& 7 E 1 i.#XU I } r.>.#X@.| +.| ; P 1.@X>.; { j.*X@X=.+.X.- :.",
"4Xr.6.O.#.i.<X7 H ) r.&.f.- h +.=.; & k.z.g - J -.n.CX*Xr.| ..f.",
"}.#X$X$X$Xl.$.$ - &.3 & N.R.b.c.%XO F } l <.5 | (.l.%X*X*X*Xx.*X",
"e.,.>.,.X.$.1 : $.| #.@ L.F.s.>.s.; ] { t   O = r.X.a s.g.g.h.>.",
"3  .: R $.,.i.7 +.O.+.& L [ i y O % GXj.s.4 + : O : > h > a g.g ",
" X|.> v #X>X>Xv 8 |.R L U C.i z 9 S `.^.d.XXb q q wXaXtXB V Z rX",
"q , , < 8 OXXX,XOXXX>X^ Z.R.d.z 6 L J.T.g.yXtXtXpXDXiXeXqXC B N ",
"< > 9 8 q >Xc c v m  XFXC.B.^.z 9 P P.w./.-XC C V C tXeXB M M c ",
"v 9 |.0X>X,XXXv < b }.Q A.I.a.n }.^ GX`.hXvXZ V V ;XtXSX;XB wXC ",
">XXX>X,X&Xu c 9 : < 9 S Y.V.{ -X9XL A.Y.^.m Z V b -X:Xm :XrXSXSX",
"|.j 0X}.< , j j 9 < < G V.B.` XX XD Y.V.;.y c c , b v c m -XoXm "
};
