/* XPM */
static char *partsys[] = {
/* columns rows colors chars-per-pixel */
"32 32 191 2",
"   c #23181EF41BA3",
".  c #25EE223B1CF7",
"X  c #294B23021E03",
"o  c #2712249C20FB",
"O  c #2AF726E52217",
"+  c #2E6226372AF2",
"@  c #2E582A7025A1",
"#  c #2F632CA729EC",
"$  c #2B3E24BA3292",
"%  c #2D7C247D3F0A",
"&  c #32012CB4274F",
"*  c #32CA2EA22A1E",
"=  c #3CDE2CF6246C",
"-  c #3334264B3294",
";  c #34102CCE3489",
":  c #34FD2E283A16",
">  c #3EEE2D1A315E",
",  c #383A2DF3384A",
"<  c #357D32272D8B",
"1  c #39B334392F2D",
"2  c #370D34A93151",
"3  c #39B1367A32DD",
"4  c #3BEC33ED3AEB",
"5  c #3C9F39F6360F",
"6  c #3E673BEB39F9",
"7  c #365E1F625731",
"8  c #3D091FA3516E",
"9  c #2E5724134678",
"0  c #371E2E8341B7",
"q  c #37362B184CA3",
"w  c #3D7F2F5842E9",
"e  c #3A6A2E494AFA",
"r  c #3546233550DB",
"t  c #35BC24385AFA",
"y  c #3EDC2C6E5EC5",
"u  c #367723706A27",
"i  c #3A4C24F56636",
"p  c #3A4122B46A84",
"a  c #3E2E2A9E6423",
"s  c #3D43299B6A49",
"d  c #4EFB2816344F",
"f  c #49962D2534A5",
"g  c #45BE323F274B",
"h  c #44C2319328CA",
"j  c #4E4B3AA32FB1",
"k  c #462C3AA0315B",
"l  c #41EB3E593B4C",
"z  c #4CB33BCB32FE",
"x  c #520A29163510",
"c  c #533B3DF9341B",
"v  c #52293FAB3885",
"b  c #5B203EB83541",
"n  c #61FC2B804026",
"m  c #484D1E646290",
"M  c #489125DA4497",
"N  c #426232574444",
"B  c #477A36C35202",
"V  c #4B9F39F8522F",
"C  c #50A5219757E1",
"Z  c #5BD63B934086",
"A  c #54E739A35E59",
"S  c #60283F6D602F",
"D  c #45E52F1864DF",
"F  c #40A32AC86D51",
"G  c #4B0D20D36865",
"H  c #48CD311A674C",
"J  c #4EF834A9709C",
"K  c #56F621396D02",
"L  c #5DB2203C6295",
"P  c #556A3AA166E0",
"I  c #57943B796891",
"U  c #5BA23E666377",
"Y  c #592F3B83704C",
"T  c #673122B3589D",
"R  c #60733FEF62F3",
"E  c #444042343ED3",
"W  c #5356426739BA",
"Q  c #59D2427336EF",
"!  c #5C8745C23B41",
"~  c #5E594934402A",
"^  c #60F7438936E5",
"/  c #6386463A3C40",
"(  c #68294B9B3EA0",
")  c #6ECE4CBF3B62",
"_  c #75794DB13D09",
"`  c #79964EF03D20",
"'  c #7CBC52983FBB",
"]  c #565F423C40E6",
"[  c #5D8649024168",
"{  c #5D88408B6879",
"}  c #675C49314050",
"|  c #6AE54A404149",
" . c #61BC475D531B",
".. c #6FFB4691564E",
"X. c #6F2046C05B0A",
"o. c #6BF34A8E517E",
"O. c #6E764B3A5DCE",
"+. c #6F1250F946F6",
"@. c #72544EFC41F0",
"#. c #70CF4B115E6B",
"$. c #75AF53E3438C",
"%. c #7669520D4E6A",
"&. c #7CC55505443F",
"*. c #791256094C1C",
"=. c #7D0D5A104506",
"-. c #7EAA5A884B68",
";. c #766654CE59CE",
":. c #7D1554465578",
">. c #7D02556A5D37",
",. c #7EC95BA853E1",
"<. c #7D7E5B4D5C6B",
"1. c #63E2442463E8",
"2. c #6FFC4B86679E",
"3. c #6F604A5C68AD",
"4. c #6AFD469F719D",
"5. c #743F4D5663CB",
"6. c #774E4EE37057",
"7. c #7A7B4F9965CD",
"8. c #742A4D6C715E",
"9. c #77EF51046501",
"0. c #7CDD53E563E3",
"q. c #7BD653836D1A",
"w. c #7F7458BF6080",
"e. c #81162AE651EE",
"r. c #88E221CC6B72",
"t. c #AAAA205E5ECC",
"y. c #814653583FD7",
"u. c #836C568E457A",
"i. c #847556A6499A",
"p. c #85155A564665",
"a. c #858C5C574B51",
"s. c #8AFF5B42471C",
"d. c #8C105DA84B2E",
"f. c #816854215369",
"g. c #837455BD5E60",
"h. c #84425AE55405",
"j. c #83725DA05BD8",
"k. c #8B7F5C445BEA",
"l. c #935E5F1F4D3F",
"z. c #935D5E915770",
"x. c #90E65FA05B5C",
"c. c #837855236135",
"v. c #85BD59B26444",
"b. c #84D85B8C6C3D",
"n. c #8D575D5066B7",
"m. c #8A5F5CDF6B6D",
"M. c #86A25A6E72CB",
"N. c #8AFD5C4B7234",
"B. c #96515FE662E7",
"V. c #8EB462324D94",
"C. c #837762CB5DA5",
"Z. c #8D7261435442",
"A. c #8D0F63B05D5E",
"S. c #900E6A975616",
"D. c #92E662F04D79",
"F. c #94FD6527532D",
"G. c #960B65615B5A",
"H. c #9B5E67255424",
"J. c #9C1065665B86",
"K. c #9CA26AB055AD",
"L. c #9D8C6B4A5BAF",
"P. c #87B160EE644D",
"I. c #8AC861826486",
"U. c #8D34623E6C99",
"Y. c #947D638F63E8",
"T. c #934F62546C53",
"R. c #96886B666ACB",
"E. c #9C2F67AE640D",
"W. c #9C136B686445",
"Q. c #9C0269616940",
"!. c #909460D67435",
"~. c #A2846C695649",
"^. c #A4796CAA5BF9",
"/. c #A67D717A5E1C",
"(. c #A8DD71495C46",
"). c #A4266E6C6666",
"_. c #A3306E356A62",
"`. c #A8B66EE16A1A",
"'. c #A2C36B7A76FE",
"]. c #A65C71C86723",
"[. c #AB0F73E563EF",
"{. c #AC6074116BBC",
"}. c #AF897A8466A1",
"|. c #A40D72C775C7",
" X c #B06E7E2676C5",
".X c #B2C7755261AE",
"XX c #B4CE77506A99",
"oX c #B4037A886C5E",
"OX c #B35279FE727F",
"+X c #B9267EB37274",
"@X c #BAF9809171A9",
/* pixels */
") V.F.d.$.a.K.F.J.=.L.].|.v.Y.k.v.U.k.'.I.h.F.L.V.$.F.D.D.=.V.K.",
"$.=.V.s.d.$.s.p.a._ i.E.U.>.Y.g.>.v.T.m.<.k.V.K.$.a.s.s.p.' ~.V.",
"V.a.&.s.V.a.d.s.V.=.u.G.W.b.T.n.m.m.m.>.@.F.s.u.=.V.D.=.' s.K.=.",
"d.K.$.u.d.F.a.V.K.z.-.k.I.0.g.T.N.N.B.v.*.l.l.' s.K.s.$.p.a.a.$.",
"Z.V.V.u.y.u.p.=.F.d.a.i.x.O.>.q.q.N.!.T.&.u.a.a.$.V.V.&.' ) _ ' ",
"u.u.p.d.) u.d.&.&.a.' _ a.>.b.M.0.c.c.f._ u.&.&.V.u.p.p._ ) $.' ",
"~ W W [ z Q [ W z z z = h o.9.N.5.5.X.W c ! k j W g j k z Q c Q ",
"3 3 6 5 2 1 2 * O @ O .   N 1.9.5.3.4.4 O * & @ & . .   3 2 * E ",
"< * 1 5 @ O < * * @ O . . N 6.6.1.1.U + @ * & @ * O .   @ & < 5 ",
"6 5 < @ O X @ @ @ < 1 O < B 4.4.U { U + @ * & < 1 & 1 3 < 6 5 < ",
"< < @ X & & < @ & < < & < B Y P I I P 2 * * # * & & < < < @ * * ",
". < < 5 2 < 3 5 * X & & # q D D J H y 4 3 < * @ @ * & # @ O 1 < ",
"< < 5 < < < < < < 3 * * < 9 u s s s t : @ 5 # < * < < < < < 3 < ",
"< 3 < # < 5 5 2 1 & 5 3 < 9 u u p s p ; 5 5 < < < < l 3 5 3 # @ ",
"3 < 6 5 2 2 5 E l 3 5 < O % r m K m t : 6 l 6 3 5 < * * < 5 6 5 ",
"2 # 6 5 5 3 < 5 2 5 < & < + - T r.M $ ; < 3 < < * * O @ < < < E ",
"@ * 5 6 3 < 2 < < 3 * * & @ g T t.d < # 3 < @ 5 5 * & O X & < 5 ",
"* 3 5 6 5 5 2 4 * X . 1 * < 1 f x f < # 3 6 2 @ O * & < 1 < 3 5 ",
"@ < < # 2 3 6 3 < < < @ 3 5 # @ < 3 2 2 6 5 < < * 1 < 5 < @ & 2 ",
"5 < 6 6 E 3 O < 5 < < 1 < 3 * @ < 5 5 < & < < < 2 , < 1 < 5 5 5 ",
"< < < * < * < 6 E < 5 5 O 2 # d x f * * 3 3 l 6 6 6 < 2 5 3 < * ",
"< 1 3 2 5 6 5 * * 1 < @ & 0 r C L r 9 4 1 < < < 3 < < @ 2 2 * 1 ",
"< @ < 3 3 ; O   * 3 @ @ * q F a F D i , O O < < < @ @ O < @ * < ",
"< * < 2 +   O @ # O & O X w U R 1.R A + O @ & X O @ X O # < * 1 ",
"! ( / b b b / / / / ^ Q @. .5.7.5.#.X.b b / / c / / c ( Q [ } Q ",
"_ u.&.a.&.$.u.l.d.&.&.h.:.;.:.c.c.c.v.>.%.h.s.$.u.F.` $.&._ z.&.",
"&.a.d.p.D.p.y.d.V.&.:.k.I.c.v.h.>.!.m.n.;.h.a.a.V.V.' d.p.p.=.p.",
"l.i.H.V.d.K.V.S.F.G.^.A.j.Q.Y.Y.<.I.Y.G.W.g.k.F.L.~.V.a.V.V.=.a.",
"V.d.~.}.~.D.-.L.L._.`.<.Q.{.).E.:.P.Y.k.Y.T.<._.^.K.^.a.a.F.V.K.",
"(.(.H.~.~.V.G.K.].{. X,.E.XXz.J.h.Z.).z.Y.`.W.h.).H.^.^.F.a.d.K.",
"^.^.~.K.V.L.G.L.[.].A.R.E.J.W.[.,.A.XXG.).OXG.-.L.J.^.[.l.K.K.F.",
"(..X/.G.^.).J.{.{.C.C.OX{.XX@X@XC.W.oX_.).oXoXG.h.).^.}.^.~.}.(."
};
