/* XPM */
static char *partsys[] = {
/* columns rows colors chars-per-pixel */
"32 32 11 1",
"  c #191919191919",
". c gray20",
"X c #000000007F7F",
"o c #7F7F00000000",
"O c #7F7F00007F7F",
"+ c #7F7F7F7F0000",
"@ c #4C4C4C4C4C4C",
"# c #666666666767",
"$ c gray50",
"% c red",
"& c gray60",
/* pixels */
"@#$#+#%$$%$+&OO+$$%&$##$+#$%$#o&",
"#+%$##+#$o#$%$$#O$$$#$%$%##+#+%$",
"##++$+$%+#%$&#$#$####%#%#+$##%$+",
"%$#O%##$$$$+$#%$O$$%#+###$%#####",
"+$###+O+$+OO$##$$$$%##+#+$$++##+",
"##%+@#$##++#%#O$#%###+##$o###o+O",
"o#@@@oo@@.o..##O###@o@@oo@@o@@@o",
"@..@..@. ... .@##OO.... ..  ...@",
"..... ... .  O##@#@. .. .   ....",
"..... ........#O@O@......o......",
"..o . .....o.@#OO#@..o....... o.",
" ..@...@. ....@XO@@.... . ......",
"......o.......@@X@@.....o.......",
"..............X.@XX.............",
"...+...@..+. ..O@OO..+.........+",
".......... ....OO......... .....",
"...@...........OO.......... ....",
".....@...o .....@....@...o......",
" ....+......... o............ ..",
"...............................+",
"....o.........oo@.......+.......",
"o....@........X@O.X...........o.",
"....... ......@@@@@.. ... . ....",
".....  .. ....@O@O@. .o. . . ...",
"+@@o@@o#O+@+#oO$O###O+##@@o#@o#@",
"@+#$#+o$+$#O#$+$+##%+O+o#+$o+#$#",
"###%$$$#$o%$#$$O$$O$####%#+$%#%#",
"%#+$+%$++$$$#%$#+O&+$O+$&$O+$##+",
"%+&%$$#$%&$O$$%$$$$%+$O&$$$+#$%$",
"&$$&%$$%$&&+%&&+O+&$$&$%$%$$+#+$",
"$$$+#$$+%&$$$$&&O+$%%&%#%&%&%+$%",
"&%$%$&%&$$+&%&%&$$&&$&&$+$$&&$$&"
};
