/* XPM */
static char *mdltest[] = {
/* columns rows colors chars-per-pixel */
"32 32 13 1",
"  c #191919191919",
". c gray20",
"X c #000000007F7F",
"o c #00007F7F0000",
"O c #00007F7F7F7F",
"+ c #7F7F00000000",
"@ c #7F7F7F7F0000",
"# c #4C4C4C4C4C4C",
"$ c #666666666767",
"% c gray50",
"& c blue",
"* c green",
"= c gray60",
/* pixels */
"$@@$$#@##@.@$@@%%@%o@#.@# *%@%*%",
"###@@#$+.@ .$##@@$@#.#o...$@$@@#",
"@.@##@@#....@$#.#@#@.@o#o.@#$@#@",
"%#.#$$@$..@.#@.@@o$$#@#o@#%@@#o%",
"@#.@#$@$#$@@$@ @.o$%@o@$%*@$o#@$",
"$@..@.@$@%$$$# #.#@%@%=@@%%o.##o",
"##..@###@$$@+@+@@@@o%=%%%@@##.o$",
"@..#.+.@##@.+##@@$$@@oo@@#.@.o#@",
"#@...+#.@..+@.@@#@@@@@ @.@#@###o",
"# +.@#@.. @.+. .@@#... ...@#o##@",
"$#@##@..  ..  .+..  .o. .@$@@O$@",
"@$@$$$@+..@..@.. ..#$@.+@#o$@@%$",
"$$@$#@@.@#..$@..@#+##.. @o#@%@$o",
"@..##.#@#@@.#.+#@#o.@..@##@#o$$$",
"###$@.@$@.o.@@@@%@@#...+@.o$$@@$",
"$@.@$#+@.@....#@@#+@@..@#@@%o$$o",
"@#@.###@@@##.@@..+@#o$.@@#@##@o#",
"$#  .#++##o@... # ..$#.@#@#@...#",
"#...@.@..###.@@...+@$@ ..@... #o",
"+..@...#.@..@.......@#+@+..o.@#.",
"#..@.@#+.#o#$@#...@.#. .@@#.@.o#",
".....##@+@@##..@@...@# @#O@#.#.@",
"$#@.##@...##@.o#...@##..#@$@@..#",
"#@##@#...@. ##@##..@o#@.#$O@$#$@",
"#@o###. .@..@@@##..@.  .o#.##@o$",
".....#@.#...+..o .@#@.....#X..##",
"##.#$O$.###..@...+@$.#O.#%O%###O",
".....$#$##$+@#.#..@$o%%%%O=OOO$#",
"....#$..###@#@@..+@#$$OO$&%%$O##",
"#.O$$$#O.##.@#@#@##@@O$#O$OO$XO$",
"$#$$$#.. ...#@#$$+@@###O#$$#$O%&",
"#.$#o..#....@..##.@##.##.#O##$$$"
};
