/* XPM */
static char *blocks[] = {
/* width height num_colors chars_per_pixel */
"    50    50      256            2",
/* colors */
".. c #100908",
".# c #198c8b",
".a c #948e78",
".b c #21c9b7",
".c c #5d8d83",
".d c #8c4b4c",
".e c #205272",
".f c #5b4945",
".g c #1aabb5",
".h c #8dccc0",
".i c #5aac97",
".j c #196c6b",
".k c #2189c1",
".l c #1b71a7",
".m c #626b5e",
".n c #d98fa4",
".o c #55c8d1",
".p c #36ab9a",
".q c #57aad9",
".r c #d1d3f9",
".s c #97ad99",
".t c #588cd2",
".u c #388c8b",
".v c #4587c9",
".w c #56e4fc",
".x c #3aade3",
".y c #794f51",
".z c #98ead4",
".A c #3672aa",
".B c #386d8b",
".C c #74aed4",
".D c #7accc9",
".E c #7a8dc3",
".F c #d85a58",
".G c #8d6d6d",
".H c #8c86c0",
".I c #389ea2",
".J c #57bad8",
".K c #56739e",
".L c #acaaac",
".M c #397caa",
".N c #38bab8",
".O c #177b81",
".P c #4698c8",
".Q c #5a9bca",
".R c #199da2",
".S c #484b4a",
".T c #565a5b",
".U c #58baa6",
".V c #c4d29c",
".W c #56d9ed",
".X c #229dcc",
".Y c #afedf6",
".Z c #4c0e14",
".0 c #805957",
".1 c #849080",
".2 c #36bce5",
".3 c #29acec",
".4 c #39acb5",
".5 c #8eadf3",
".6 c #407fc5",
".7 c #4cfe5c",
".8 c #bd8eba",
".9 c #cce8e4",
"#. c #8eddda",
"## c #7cd8d4",
"#a c #8d5e53",
"#b c #368ea1",
"#c c #45c9d3",
"#d c #574e58",
"#e c #217ea4",
"#f c #9471b0",
"#g c #68aced",
"#h c #367c84",
"#i c #846a94",
"#j c #74ba94",
"#k c #56999f",
"#l c #188fa8",
"#m c #4c9b92",
"#n c #185f66",
"#o c #24bea4",
"#p c #58ccf6",
"#q c #678ed1",
"#r c #67bbd5",
"#s c #5a7fa6",
"#t c #287d82",
"#u c #449ee2",
"#v c #46acb4",
"#w c #b28c8f",
"#x c #81695f",
"#y c #91bcf5",
"#z c #186f80",
"#A c #cfab9f",
"#B c #4790cf",
"#C c #7c9bc9",
"#D c #785d74",
"#E c #579de2",
"#F c #248be4",
"#G c #7cbbdc",
"#H c #4c585c",
"#I c #92ecf2",
"#J c #299ca0",
"#K c #46def6",
"#L c #49abe2",
"#M c #927b7c",
"#N c #543030",
"#O c #ad5965",
"#P c #21618f",
"#Q c #8c9acf",
"#R c #b8faf5",
"#S c #b29b94",
"#T c #29abb1",
"#U c #69cbce",
"#V c #7bcef1",
"#W c #219bf1",
"#X c #815f58",
"#Y c #9dfdfb",
"#Z c #242a14",
"#0 c #57adee",
"#1 c #4771a6",
"#2 c #625d71",
"#3 c #fcebee",
"#4 c #477e82",
"#5 c #608cb0",
"#6 c #91cdf7",
"#7 c #6eaab4",
"#8 c #bbabec",
"#9 c #457fab",
"a. c #46a0c5",
"a# c #d07688",
"aa c #40eafc",
"ab c #ccb4f0",
"ac c #f48edc",
"ad c #743a20",
"ae c #b0ccf6",
"af c #321516",
"ag c #b07ea4",
"ah c #7ee5f4",
"ai c #fcae90",
"aj c #f5d0f0",
"ak c #7c161c",
"al c #d19ea5",
"am c #c29cbc",
"an c #29c9ef",
"ao c #fc4e74",
"ap c #fc8098",
"aq c #677e69",
"ar c #ac4838",
"as c #f4c2e4",
"at c #413d41",
"au c #a2bfa4",
"av c #799f9d",
"aw c #7a7d6a",
"ax c #b8bffa",
"ay c #b1defc",
"az c #d6fbfa",
"aA c #25bcdb",
"aB c #1c1a11",
"aC c #919d8b",
"aD c #9680a8",
"aE c #503f3f",
"aF c #f86448",
"aG c #616b87",
"aH c #91dcf8",
"aI c #365d81",
"aJ c #a58089",
"aK c #40363e",
"aL c #cca0d0",
"aM c #ac9eec",
"aN c #7ef8fc",
"aO c #5f81c2",
"aP c #fcfed8",
"aQ c #fadffc",
"aR c #936f89",
"aS c #384e6c",
"aT c #909ce6",
"aU c #1cdecc",
"aV c #8c4e6f",
"aW c #a4feac",
"aX c #2cd9fc",
"aY c #2680cf",
"aZ c #49bfe2",
"a0 c #6b99a8",
"a1 c #40fafc",
"a2 c #502414",
"a3 c #7f364f",
"a4 c #69f1fc",
"a5 c #5daeb5",
"a6 c #814d79",
"a7 c #748aac",
"a8 c #b48ee4",
"a9 c #48c9f7",
"b. c #72bdba",
"b# c #7e9de6",
"ba c #fc9ec4",
"bb c #b44e6c",
"bc c #2873a8",
"bd c #a0bbf8",
"be c #e0eafc",
"bf c #787ea0",
"bg c #bce2cc",
"bh c #7adbed",
"bi c #ecc294",
"bj c #9fcbb1",
"bk c #90a8be",
"bl c #488a8a",
"bm c #687098",
"bn c #c2a99a",
"bo c #49bcbb",
"bp c #695a5a",
"bq c #bfecf7",
"br c #79bcf8",
"bs c #a0eeee",
"bt c #c19d97",
"bu c #e4b9e9",
"bv c #c1cffc",
"bw c #807c88",
"bx c #69d8ee",
"by c #604150",
"bz c #288c8d",
"bA c #674c4a",
"bB c #276d69",
"bC c #318bc7",
"bD c #48aa9d",
"bE c #486e94",
"bF c #a16d64",
"bG c #329dc8",
"bH c #a2a9ec",
"bI c #478ea9",
"bJ c #6a4f5a",
"bK c #288da3",
"bL c #67c9f7",
"bM c #c48e94",
"bN c #276d8c",
"bO c #679be5",
"bP c #a096c8",
"bQ c #309de7",
"bR c #a0cdf8",
"bS c #a0dffa",
"bT c #465f80",
"bU c #4c465c",
"bV c #a19de9",
"bW c #7dacf2",
"bX c #7692dc",
"bY c #5dbfbc",
"bZ c #26bcc2",
"b0 c #796b74",
"b1 c #68e2f4",
"b2 c #a0e0c8",
"b3 c #8e5f61",
"b4 c #2b6070",
"b5 c #fafdfc",
"b6 c #221112",
"b7 c #57bdf2",
"b8 c #499dac",
"b9 c #6abdf7",
/* pixels */
"#BbW.vbWbO#ybQ.xbR#u#d#H.T.T#d.T.V#jbSah#Y#I#RaN#R.wajaN.wahaXbtbt.T.T.T.T#d.S#KbhaZ.oah.4bZbo.4#v#J",
".v#u#BbQ#u#gbW#u#0.S.S.S.S.faSaCambtbhbxaaaaaaa4#Y#Yasa4#Ra9a1btbtag.S#d.S#H.SbU#caA#c#UbY.4bobY.p.b",
".v#q.t#BbQbQ#u.x#0.0bp#X#O#aa6.abMala9b1bSah#K#Kaa.waja4#YahaX#S#SaJ#X.T.0#O.0a6bobZbZbZ.N#T.o.U.4.R",
".v.tbO#u#BbQbQ#u#W#O.0bp.0aV.0aCalambLbxa4ah.w.w#K.wbuaa#Y.w.mbtaiaR.0#O#X.0aV#XaZ.2.N.4bZ.g.NbY.g.I",
"bX#qbCbOb##B#ubd#u.0aV#X#a.0b3aCbt#Rb5bS#pbx#Rb1.W#R#3#KbxaXb0btalb0b3#a.0#X#X.0bh#r.N.2###T#v#T#o.g",
"#u.6.tbC#8bd#u.xbO#X.0#a.0.d.d#M.nai#pbxbx#pazaz#Ka1aj.w#YaX.Hambn.0b3#a#X.d.d.N.o#..4.Nbo.p#U.R.b.R",
"#Q#qbHbO.t#E#E#u#u.0b3.0#Xa3.dbwalalayaHazaHahbSb1bxasb1#Yaz.8btam#Xb3.0#xa3.0#r.J.obo.4.4bYbY.hbzb.",
".6#qb#bWbHb##BbH#u#u.0b3b3#Xb3#2bt#Ab7ay.Y#Razbhbx#R#3#Kbsaz.8bnaLaVb3b3#XaV#a#.#.#vbobo#T.NbY.D.RbD",
"#9aT#QbHb#bW.PbW.Pbr#a#a.0b3b3b3.naL#gbqaz.Y.YbhaNb5b5#R.Wb1.8bn.8#ab3#X#a.0b3.D#Ubo.obD#Ua5#JbD#J.u",
".M.E.v#qb#b#b#bX#u.5.0.0.mb3b3b3alal.s#VaHbS.Y#YbSb7#3.Ya9b1bnba.8b3b3#x.0#a.0#V#U.D#v.4.DbD.p#b.u.R",
".6bc.M.v.6.vb##B.5#B#abb#a#Xb3#abja#.sb9b7b7aZbq#pbqaQa9bS.2#A#A.8b3#Ob3b3.0.d.4.h#v.h#v#Jb..Rbz.Ubz",
".E.6#1#5.t.v#C.v.5#B.0#Xb3b3#xa6aub5.s#0brbLb7bSb9bSaQaybSaAalam.8#ab3b3b3#x.q.4#G.4b..Ib.#j.R.u#7bz",
".A#9.E.v.M#9.6.M.vbCaV#a#Xb3#ObF.s#AaubRb7#L#0#L.xaZaj.2.3aA#3bnag#a#a#Xb3bp.I.I.IbKbKbzbz#l.#.#.I#m",
".A.Abc.AaO.6#q.M.vbk.v#xb3#Xb3#a.salau.x.xbrajbL#L#Vaj#0bGaAbt#5ag#xb3b3b3.0a.a5.I.Ib..I#b.#.R#t.O.u",
"#PbE#1#9#q.M.A#C#C.M.vb3b3b3#ab3aCamau#L#E.qaQbW.q#L.q.qa.bG#Sbt#i#ab3#a#X#X#J.I#ka5#h.u.u#t.O.O.u.O",
"bE#P.Ba7.H#sbK#e#1#q.Ab3#xb3.T#DaCbMbt#yaebWab.Xa5#G.Q.hbCbKambtb3b3#X#ObF.d.g#l#k#7#h.i#t#t.#.O.ubB",
"#P#P.A#1.A#5.AaO#Cbc#kb3.0b3b3b3.a#Sbt.Q.Q#Gas.q#ybG.J.C.Q#lbt#Sb3#H#D#Xb3.0bI#ma5bz.I#h.u#z.O.O#t.O",
"bEaD#P#P.BbN.A#e.AaO.MaVb3b3b3b3#XbM.8#BbI.IajbG.q.qb8#ybKbZbMaL#ab3b3#a#abz.R#l#m.ubz.u.O.R.j#mbl#t",
"#P#P#PaI.B#s#9.AbNbc.l.0b3b3.G.a#aaJ#w#b#BbOb5#3#Sb5#la.#7.T#wacb3b3b3a6a3#kbz#tbz.Obzav.Obl.O.O.j.j",
".e#PaI.K.KbE#Pa7.Bbca7#t.0b3#X#a#a.L#w#C#5#bb5aP#AaP.PbIbK#DajbP.db3#a#a#a#h#kbz.u#k#t.O.#.O.j.jbB#4",
"bT.e.eaI#PaI.KaI#s.B.AbNb3.0b3b3b3aJaJ#h.M#5b5aCbib5.ubk#7#iaJ.8b3#x#a#X#abz#k#h#t#t.c.c.j#4.j.j#nbB",
"aIaI#PbmaI.K.Kbf.K.B.KbN#a.Tbpb3#abjaJ.Aa0a0b5b5.aaPbKbIav#fa#.8b3bp.0#a.0a0#h#h#h.j.u.c.jbB.jbB#4#n",
".eaS.ebTb4bTbm.K.KbN.K#1#X#a#a.0aw.saG#4#sa0aFap#Narav#5blaRaDag#a.0aV#Xa3bl#4#hbBaq.j#h.jbB#nbBb4b4",
"aI.e.eaS.eaIaI.ebTaI.K.Ba6.0.0b3bpaCbgaG.B#ha2.Fafaf.Bbl.B#M.GaR.0#a.0#ObB.B#h#hbBbB#4bB#4#n#n#n#n.e",
"#PaIbN#P#P#P.Aa7.A#1.K.A.0.0.0.0#a.1.GaqbC.tb6aFarb6bCbC.M#Maw.d.0.0.0.0#kbI#h#h#t#h#t.jbB.jbl.j.j.e",
".e.K#P#P.A.Aa7.A.l.6#Q.Abc.0#X#dbp.1b3aw#Ebd#M.k#bbd.QbK.k.G.G#a#X.0#d#2#7bK#e#e#7bI.l#z.O.ObB#4.O.j",
"bN.l.l.k.laO.E.t#saY.lbC.kbbbp#X#Xb0#iaq#BbWaJ#u.X.X.XaA.k.0.G#X#dbp.0.y.Q#Gb8#k#l#t.R#e.O#z#z.##z.#",
".A.HbcaO#qa7.v.6#q.v.6.6.v.0.0.y.ybp#xaqbWb9#w.qbr#gbG.P.q#xbF.0.0.y.d.y#r.P.I.Pa5b8#e#b#b.O.ObI#h#m",
"bcbcaO.6.6.6.6bI#qbO.vbW.v.0.y.y.y.y#Xaq.x#L#Lb7brbr#LbRbr#xaR.0.ybp#Xbp.IbG.Ia.b8b8bDa5.C#t#t#J#t.#",
"bc#1.A.6.6b##q.6#B.6.k.Q#E.y.ybp.0bp#D#Xb7#0a9#V.Jb7.x.xb9#DaRbpbp.y.0#T.4a.#G.I.4#vb8bz.I.IbK#kbD#b",
".AbV#QaOaMaTbXaO#q.v.vb##F.y.0.y.y.0.0#Db9.r#6bSb7b9aZaZbR#XaR.0.dbp.y#V#Va5.D#rb..I#v.Ib8a5#J.Ra5.R",
".6.AaObXaTaM.t#BbVaY#B.t#WbObpbp.y#ObpbpbrbSbe#Vb7#Vb7b7bh#faR.ybA.ybJ#T.I.qbY.Da5.4bYb.#J.U.I.g.Ia5",
"aO.6aTbVaT.taO.v.t#q.vaYbVbO.y.ybJbAawbJ.r.9#6b7b7a9aHb7bxbp#D.ybJbJ.y#v.4#bb..Da5#v.I.4b.#JbY.ib.#m",
"aOaO.6.t.t.6#F.v#q#q.6aM.6.6bA.f.ybJaw.m#Lbrb7b7.2b7bLb9.qbJbJbAbp.Sbya5#v.4.I.J#v.4#T.4#v#v.I.h.I.I",
".6.vaTaT.6bX.tb#.v.6.6.A.AaYbAbAbAbA.m.y#E.rb9aoaD.GaZ.x.4bJbA.ybAbAbA#J.I#J.4.Db..4bY#v#v.p.p.Ibz#J",
"aY.6aY.6#F.6aYbO.taY.taYaOaYbAbAbpbJ.TbJa8bCbC.Famas#G.IatbpbAbAbAby.R.g#l#T#T#T#T#T#T#T#T.D#J.p#J.i",
"b#b#.v#q.vaTbH.t#F.6aYaY#FaYby#dbAbA.T.m#faYaOapaoba.v#eat.fbA.fbAbA#v.R#T#T#U##.N#U.4#U.Db..R.I#J.R",
".6#WaYaYbOaY#F#WbQaYaY#FaY#F#Wby.fbAatbyaG.l.l..afb6.l#eaE.SbybA.f.f.g.4.gaUbZ.4bZ.g#TbY#T.gbZ.b.R.R",
"ab.5bW#ub##u#ubQ#W.taYbOb#.taYby.fbybA.f#2#q.q.Zafak.k#ebU.fbyby.fa3#T#v.NaA.Nbs.Y#Ub1bo.N.4bZbZ.gb8",
"bObW#ybrbW#y#y#u#gbObQ.5#8.H#8.f.fat.fb0bPaQaja2adadab.raDbp.fby.S.f#UaH.2.o#I#R#Ibxah###Ub1##.4bob.",
"#Ebd#y#E#u#L#0#gaxb9bQ#0b9#E#u.fby.f.f.I.xb9bS#daW.7.J#L#3bJby.faE.f#vanan.o.W#c#K#cbx#I#c.N#c#vbY.D",
"aebOb9.rbvbd#uay#g.xae#0.x#0a.aEaE#daE.J#Vaz#p#db5.TaH#paxbJaE.f#d#T.J#can#RaN#U.Wbx#R#cbx#R.z##bo##",
"br.5#0bWb9#0.x#0#yb9brbRbrbrbG.f.fbyaE#0#Vb5bh.9bnbUbx.2.2bybyat.f.UbYbo#c.W#c#c.Wb1#Y.W##bo#U#UbZ.4",
"bdbdbdbv.5#0#Layae.3#g#ybR.x.I#baEaEat#Hbxbx#Raf..#Z#VaZaZbUbU.SaK.ib.#T#c#c.W#R#I#.#c##bsah#I#.bo.N",
"bdbv#g#gae#0#0ay#LaX.2#V#L.4bGbI.SaEat.Sbebq.Y....aB#RaZ.JaEaEaE.SbD.N#o#c.o.zaz##ahaz.z#I.Ybo.o#.#v",
"ax.qbRb9bv#Lbrbr.xb7aebd.4a.#C#kaEaEat.S.Yayazb6..aB.Yb7#vaEataEatbj.p.4.Dbx#U#c#c##bs#I.z#.#c.z.o.D",
"#ybObdbR#E#0#ybv#0ae#L.Ja..Pbk.MaEataEaKaxbvbd#6#rbR.Ca.a.#NaEaKaEbz.U.N#j.D.NbY###R###Rbq###U#c.z.U",
"bO#u#EbObd#E#0.qaxbu#Q#C#5#5#s.KaKaEataKbk.s.Q.P.P.P.Qa0#haEaEatav.c.ibDbD.U.UbY.NbYbgbs.z#U.obobobY",
".Q#E.PbWbd#B#u#ubuabbX.E#9.M.AbfaKaEaKat#sa0#C.c.M#h#9a7.BaEaKaE.cav.ibD.p.pbDb2##.N.z#U.h.z.Dbobo.4",
"#B.PbObXaT.tbV#8aO#s#q.M.M.A#sa7.KbTaG.Ba7#9#4.M.Mbl#9#4#s#haC.c.u.u#m#J#J.I#j.h.U.U#jbobY.U.U.p#obY"
};
