/* XPM */
static char *flarge[] = {
/* width height num_colors chars_per_pixel */
"    50    50      249            2",
/* colors */
".. c #040204",
".# c #6c6a54",
".a c #343624",
".b c #ac9e82",
".c c #5c4627",
".d c #9c7e61",
".e c #1c1e16",
".f c #848272",
".g c #5c5b44",
".h c #444a34",
".i c #341e0c",
".j c #846a50",
".k c #443621",
".l c #c4baa0",
".m c #9c8e77",
".n c #745a3c",
".o c #84765c",
".p c #242c24",
".q c #bcae92",
".r c #44422b",
".s c #241209",
".t c #5c5233",
".u c #342a1a",
".v c #b49674",
".w c #5c5b4c",
".x c #847664",
".y c #6c765c",
".z c #9c967c",
".A c #2c1e10",
".B c #948e77",
".C c #342a24",
".D c #bc9e84",
".E c #948267",
".F c #1c1214",
".G c #2c363c",
".H c #54523b",
".I c #543e28",
".J c #544228",
".K c #6c563f",
".L c #7c6a53",
".M c #1c1e24",
".N c #443e24",
".O c #5c5244",
".P c #64624c",
".Q c #aca68f",
".R c #9c8662",
".S c #74624b",
".T c #ccb697",
".U c #947e65",
".V c #5c4a3c",
".W c #544a2a",
".X c #ac9272",
".Y c #442a10",
".Z c #94764c",
".0 c #242a2c",
".1 c #6c5a3a",
".2 c #847e6a",
".3 c #ac967a",
".4 c #9c8674",
".5 c #847253",
".6 c #a49288",
".7 c #444434",
".8 c #645233",
".9 c #34321c",
"#. c #948a6a",
"## c #6c6a5c",
"#a c #3c3e26",
"#b c #ac9f8c",
"#c c #5c4e33",
"#d c #24261c",
"#e c #8c8a71",
"#f c #bcb69c",
"#g c #141a11",
"#h c #746254",
"#i c #241e13",
"#j c #44362c",
"#k c #dcc29c",
"#l c #a48e71",
"#m c #847e5c",
"#n c #6c5a4c",
"#o c #7c7259",
"#p c #2c2612",
"#q c #343229",
"#r c #1c1a13",
"#s c #8c826a",
"#t c #c4ae8c",
"#u c #34170c",
"#v c #3c2a10",
"#w c #0c1214",
"#x c #3c373c",
"#y c #544a3c",
"#z c #0c0e08",
"#A c #3c3622",
"#B c #44220c",
"#C c #8c765b",
"#D c #bcaa88",
"#E c #948274",
"#F c #544234",
"#G c #7c6a5c",
"#H c #443e2d",
"#I c #6c624e",
"#J c #a4896c",
"#K c #5c4934",
"#L c #646244",
"#M c #4c4a40",
"#N c #d4c2ac",
"#O c #2c2b18",
"#P c #4c432c",
"#Q c #2c1a0c",
"#R c #645d4e",
"#S c #8c7964",
"#T c #a4977f",
"#U c #242627",
"#V c #7c664b",
"#W c #6c6244",
"#X c #8c7e67",
"#Y c #ac9985",
"#Z c #84725f",
"#0 c #64533c",
"#1 c #24211c",
"#2 c #a4927c",
"#3 c #7c7465",
"#4 c #8c8374",
"#5 c #140e08",
"#6 c #3c372c",
"#7 c #dccebc",
"#8 c #34261c",
"#9 c #d4bda4",
"a. c #947e5c",
"a# c #bcaa9c",
"aa c #745e4d",
"ab c #1c151d",
"ac c #343737",
"ad c #b4aa8a",
"ae c #e4caac",
"af c #443214",
"ag c #948a74",
"ah c #2c261e",
"ai c #1c1a1d",
"aj c #3c3225",
"ak c #746a52",
"al c #b4a083",
"am c #645b42",
"an c #4c4a2f",
"ao c #3c220c",
"ap c #4c3a24",
"aq c #2c150a",
"ar c #bc9a74",
"as c #14150b",
"at c #74725e",
"au c #3c2e24",
"av c #242226",
"aw c #645644",
"ax c #644e3c",
"ay c #2c2c2f",
"az c #a48a77",
"aA c #4c4434",
"aB c #746c5d",
"aC c #b4a08d",
"aD c #7c6654",
"aE c #4c3a2c",
"aF c #141515",
"aG c #846e5c",
"aH c #bcaf9c",
"aI c #5c533c",
"aJ c #847a74",
"aK c #2c221c",
"aL c #545244",
"aM c #9c886c",
"aN c #544b34",
"aO c #94785c",
"aP c #6c5c44",
"aQ c #c4b19c",
"aR c #3c2e1c",
"aS c #6c665c",
"aT c #2c2a24",
"aU c #a49a8c",
"aV c #343644",
"aW c #b4a694",
"aX c #4c3e22",
"aY c #c4b6a4",
"aZ c #8c7254",
"a0 c #3c321b",
"a1 c #4c3e30",
"a2 c #8c725c",
"a3 c #c4aa94",
"a4 c #ccb6a4",
"a5 c #947e74",
"a6 c #ac927c",
"a7 c #847e74",
"a8 c #c4b69c",
"a9 c #8c7e5c",
"b. c #343234",
"b# c #2c3234",
"ba c #8c7e74",
"bb c #140e14",
"bc c #6c6e4c",
"bd c #5c4a28",
"be c #9c825c",
"bf c #1c221c",
"bg c #846e52",
"bh c #443a21",
"bi c #9c927c",
"bj c #745e43",
"bk c #847a5c",
"bl c #44462c",
"bm c #24160c",
"bn c #5c5634",
"bo c #342e1a",
"bp c #b49a7c",
"bq c #847a67",
"br c #2c2211",
"bs c #949278",
"bt c #342e26",
"bu c #bca288",
"bv c #94866b",
"bw c #1c160e",
"bx c #54563c",
"by c #54462b",
"bz c #7c6e54",
"bA c #1c222c",
"bB c #5c5644",
"bC c #646654",
"bD c #9c8a64",
"bE c #74664c",
"bF c #5c4e3d",
"bG c #6c5e3c",
"bH c #ac9a7c",
"bI c #9c8a76",
"bJ c #645631",
"bK c #3c422c",
"bL c #746654",
"bM c #242212",
"bN c #443a30",
"bO c #a49270",
"bP c #6c5e4c",
"bQ c #7c765c",
"bR c #8c866b",
"bS c #c4b294",
"bT c #3c2e14",
"bU c #544e3e",
"bV c #3c3a23",
"bW c #442612",
"bX c #8c7a5c",
"bY c #948675",
"bZ c #544634",
"b0 c #7c6e5d",
"b1 c #6c6651",
"b2 c #d4c6b4",
/* pixels */
"a0awbEamaEbF#ybP#FbF#HbP.Pa0.g#0#I.LbP.NbUbnaIaw#P#P#I.LamamawawaPbo#A.2.xbnambzbLbY#oax#Xb0#HbBaP#0",
"#PbZ.S.g#nbBbZbZaPaP.uawaB.kaIbP.S.SaI.H.h.H#I#R.t.L#VbjbzbE.Kawbn#K.tawaIbB#IaP.5#I#Ibj#V#IaNaA.S#I",
"#caP#Aak#p#AaA.9bFakbh.PaPbqbE#Kak.L.Lb1bhbVb1.L.5.xbjaaby.S.E.5.U.xbY#YaHbq#P#P.oag.o.LbLb0.o#PbZa0",
"#b#IaAbn.kaAbnaAaNaAbZbFbNaRbEawak.S#4.xb0aB.2#XbO#2#sbOak.L#Cbzbqbq#0.mbIbi#IambLbiakam#I.B#Ibqam.H",
"#C.x.2bU#4#3#h#y.#bh#HblaIaA.HaN#caNambLawbP#KawaBakbq#Xb0aPbnam#ob1bn#Iak#Xb1.f.2#sbv#T#TbEbLaBb0.6",
"bqbEa7#I#hb1#GaP#y.PaBbC.f#3bq.2b0aabz#IbEbFaN#PaN.ubV#Paw#KaIbVafbV#O.9.a.uaXbl#pajby#IbLbBbBak.2bY",
"at.L.BaB#I#3aw#I#4#S.2#ZakaBbP.r.xbX#3aPbv#X#Xb0bEbha0.a#Wbzbdbham#W#P.N#Pak#oaman#a#P.g.HaI.gbNamb0",
"#Iaw#3aN.wbFaIb1b1#3.w#o.OamamatambvbX#AbI#S.4aM.UbEbnbQ.8.EbEbj.SbQ#Sb1bs.UbI#X#oaAaN#Ibq#0.LamaA#I",
"aIaIaA#R#yaL#FaIbo.r#RaPawbVam#RawaPbPbUaq.s#vaF#UaFab#iayay#Uai#g#bad.xaHb0#Tbp.m.Bam.9.Bambqbv#I#R",
".Lak#Ham.r#P#Pa0bNaAaAaN#PaI#Pbh#P#K#0aw#ubmbWb..eaF#iabbw.0acayah#0bj.4bg.o#Wa1ambzbQa0#P.h.7.g#IaI",
"#SbqaNb1aNaBakat.Pby.SaBbq.tbLbE.5bvakaS#ubw#B#zb.#UaF.Fayavay#w#g#Sa2#C#VbX#C.EbD#C#sam#PaNb1akaPam",
"#obqby.P#IbFb1b1#RaN#IaB#s#oakbzakbYbvaI#uaqaoaF#z.F.Fab#gbbaiacbf#m#CaMaO.3.vbD.o.J.L.m.b.baMaw.S#3",
"bz#o#c#IbU#yawb1amaNaIb0#IbibE#ebPbqaQ#Gaq.iaoaF#1#wau#gabai.e.Cav.E.5bX.5bD#JaM.3bv#T.E.EaD.mbQam#W",
"aP#oawaN.V.taPaw.SaN.H#abhaNbybVbhaXaI.Saqaqao..aiai#w.....Fbf.Gay.L.m.m.E.Ea9bO.3bQbX#Y.oaPadaUbPaP",
".obzaXaNaPaNaPaxby.9aI#PbyaNaN.raIambz#Raqaqao.p#zbway#Uav.Gay.MbA.LbJ.1at#bbi.5.Eam#cbz.obybqbqb1#Z",
"#o.U.oaIawaP.Oak.SaB#0bEaN.Ib0am#Xbk#saAaq.saoay#xaVay#x.Gay.G#xbM.JbT#P#P.NaNan.8akbz.L#S.NaNb1.Lbz",
"beagbY#SbL#o#ZaBaB.2#ZbzbP#c.1#ZbX#ZbQ#Aaq.sbWas#z.....G.Mb.#wah#i.UbGbn#abn#LaNakbk#ma.ak#Iat#W.o.U",
"#baC.L#Xa7.xbYbY#s.obYbqbE#cbr#Pat#o.L#M#u#QbWas#w#dayb#.GbwabaFbb#T.zambnaXbsa8bXbja9aNa9.o#.an.##b",
"#sbEakaXakbL.Ob0.SagbLaPbzak#0#O.Y#W#vbq#ubwbWayaF.e.GbA#x#ibb#1#g#.#X#.#s#a.ma9#l.baUak#maw#cbzambR",
".L.obz.j#3bLbE.Sak.S.Lbz.5.L.5#C#VbE.o#3#uaqaoajababac.0ajaF#5aFay.tbd#c#VaXap.W.S#Da9.lbzbX.5.Ka..m",
"amaP.U.o#PbPbEbPbP#Z.L#CbzaO#CaObD.8.I.9#u.A#BaFaFaFb.aKab.F.FbwaiaM.Ebp.dbD#m#o#C.LbDbX.LbE.L.3bX#0",
".1#2.o#C.SamaGbzaPbzbL.o.xaMaO#VbX.j.o.r#d#OaTaTaKaKavahahahah#1#ibDbk.8aO.q#TbJbialbk#J.X#CbXaMaGbX",
"b0#Zaw#nbFaDa1bYawbnb1.x#Z#S#oawaPbn#I#y#i#i#i#1aK#1ahah#d#1#r.e#1#.bXbgaN.Q#T#cbQ#cbk#Z#X.o#X.5.E.S",
"#V#obI#E.SaPbn#RaC#3bCbY.LbzaMbvak#Z#SbP#1btaTbtbt#dahaTahaTbt.C#O.SbcaNak.5aNaBbR#c.tbX.LaP#VaPbkbX",
".obj.t#4bz#o#nanaS.H.H.f#X#Ibv.2bI#X.m#yahaK#ibM#iaKahaTahaTaTah#d#9.TbX.gaUb2agbs#Y#bad.3.B.2#s.B.R",
"aM#eaY#Ia1#0#RaAbY#o.H#RaSbybdak#oaO#Xb0#r#ras#r#r#1bM#ras#i#i#r#1.Dbp.8.z.Bag.zag.m#baW#Y#.#s#s#S#0",
"bjaB#I#H#K#c#Pa1aPak#Ia0#AaAbh#P.t#I#VaSbw#5.Fas#rbw#raK#8.Cah#iaK#2#l#Vbv.4.o#2.B#sbYaMbYa##s#ZaBbj",
"bGaPa3#3bqbYak#4.U.6aO.x.f#e.f#y#cawaa.ObMbw#q#1#r#i#ibwbMah#iah.AbO.1.L#l.o.obRby.##XaMaP.mbI.o.L.b",
"#b.5az.Eba.x.x#Z.L#S#TbIbI#C#X.Sbn#3bi#RauajbNbtbN.7#x#q.C#6#jaKbwbE.L.J.obe#Ca..S.SbzbQbjambn.Ham#b",
"#bbYbvbYb1#R#3bL.S.xbL.m#S#Z#sbz#GbnawaIbt.C.u.Caj#6br.u.uauajbt#AbEa..3bv#JaMbibH#cbX#..S#V#V#V#I#X",
"#s#XbQbRbh#6blbVbB#I#o.m#P.LaP.S.LbP#I.Vbw#i#5.u#M#H.7aA#F#6#6#Abt.obO.m.E#2aM.E#TalbYaP.E.EbX#PaNan",
".Nam#AbPaL#P.w.7#AaAbB#cawbP.L.4aM#Y.mbobtajbNbN#FaAa1aEaAaAau#r.u#V.mbk#T#TbIbXbzbSaEbK.r.g.Qawba#I",
"aA.r.Oag#ZbY#4ak#IaB#EbiaI#0bF#E.4aO.4.9aj#abN.abU.O.O#R#HbNbUbN#xbR#o.tawa.bIbIbQ#SbEan.gaw.m.mbqbI",
".2bI#X#4b0b0.LaUbI.BbY.6a7bZb0bPamb0#YbB.7a1aA#HajaK.C#x.VaTa1#ybo.XbEawbGbL.5aMbz#VbH.x#V.o.EbY#Sbv",
"azaBa##bbqbqaw#haS.xbL#bbk#IaAbobh#cbv#Rauaj#8#jbN.ObNbt.Cbtajbt#6#T.UbQ#..o.L#V.L.1bXaG#WbEbv.Lbz.6",
"bI.S.BbZaBaI#y#H.7#yaIaAbB.SbEam#PaN#0aSaA#H#ybB#y#y#yaNbU#H#q#HbN.obq#W#o.SaPbE.o.oby.n.jaOaO#Z.5bY",
"#TaI#PbYbYbaakaB#ybBa1bY.2.#b1bY#X#3#3a1btbNbUbU.ObZ#abNaAaAbV.uaj#cbGaPaX#PaXbT#Vaw.JbJby.1bEbd.1.Q",
"bY#oam.7awaA#6#MaS#H.7#R.VaBbPb1bFbzbFbF#IbYaSb0#Gb0aB#M.Oa7#R#3#3ba.xaI#HaS#4#RbCakaB#ZaB#WbB.g.wbF",
"aU#4#RbPbFbBaabP#Zb0bP#R#I.O.7.7bZ.O#FaPbP#IawbF#RbP.Saabz.SbP#0bZ#0#0#0bLbP#0.Saw.O.gaPbUaI#Z#IawaI",
"#A#O#i#O#1#ObtbB#R#I#jbUbFawaa#c.O.HbU#A#O#K#K#IbL.LaO.o.LbzaPbg.x#Kb0bL.L.U#X#3bz#Ibq.O#H#I#PaBbZ#P",
"bPbP.VbL###4#3aJba.x#jbF#6amaNamaD#Z.3bIbI#oaDbX.t#pbMbB.xambLbF.L#X.LaIaPbnbP.L#SaP.La.bEaDawaP#4.o",
"#RaS#R.7#yaA#3#ob0aw#Rbq#3#s.xatbq#IbB.7.y.xbv.EbXa.#J.EaM.oa.ak#c.taP.LaXbZ.Wbyaf.LaI#K.WbJ.cbn.nbj",
"aw#y#4awaA#AaB.x.#bEbnaXbZb0#IaPaPamambsbP.raAbRbv#mbGbybD.Xar.vbD#J.E.Z.Rak.R.E.3b0aZ#VaC.bbR#oak.g",
"aBa7#3#h.K#Iax#K.J#yaw.x.JaPbY#Z#SbgaG#XaM.5.L#ZaO#ZbXa9bBbEataIbg#CbgbzbXbj.oa.bg#Sbebvbk.maCbI#W.5",
"bF.w#y#3b1aAbabP#Ia5.maU#haB#Iatb0.obIbIbIaZalaC#lbX#2al#9al#DaH#o.m#9aebO.bbv#T#Talalada4agbRbX#CbX",
"aw.uawbBb0.kaIbZ.Sbz.L.Lawawbn.ramb1a9#oak#C.EbeaMaOaM.EbvaObgbza9bE#Va9.5#V.EbRa9#sa6#lbXa9#CaZ#C.5",
"#RaNbP.wbFbvbF#WbQ.SbXbibR#sakbYbQaU#.#l.bbual#J.3bu.3aM#Jal.Rbp.T#t.d#k#k.T.Tad#..zbJ.2#T.E#Xbvbk#s",
".N#q.raAaAaNaP.S#IawaPaPakbPaPbF#KaIbyaNaPbn#P.t#WbGaZbGafbr.J#o#LbGaNanbn.gbnbz#W.Q#faU.Q#T.3.qaCaY",
"b1#Iakam#IaN.r.x#o#S.oakaa#.#X.2ag#S#ZaPakaXbVbh.r#oa.a9aZaXbybg#VbcbGaNan.W.#bXbIbR#mam.H.rbl.H#L.g",
".O#y#AaIbx#RaI#caPak#Cbqbv#saU#C#Y.m.Ebja2bg#..mbz.j#l#l#k#l.XbXbH.q#NaQ#X#7.q.UbOaQa3#Tal#T#sbP.NaA"
};
