/* XPM */
static char *partsys[] = {
/* width height num_colors chars_per_pixel */
"    50    50      242            2",
/* colors */
".. c #14110c",
".# c #6c5a50",
".a c #7c1e44",
".b c #ac6d57",
".c c #343634",
".d c #8c5d43",
".e c #543624",
".f c #945a84",
".g c #bc8662",
".h c #9c705b",
".i c #5c4b3e",
".j c #744a3d",
".k c #4c1c5c",
".l c #744c5d",
".m c #8c6752",
".n c #ac7b61",
".o c #54395a",
".p c #24221d",
".q c #8c5542",
".r c #9c5c4b",
".s c #745b6f",
".t c #744f3b",
".u c #c47f71",
".v c #8c5d5f",
".w c #2c225c",
".x c #845142",
".y c #d4926c",
".z c #ac7a8c",
".A c #544433",
".B c #6c4b65",
".C c #54425c",
".D c #4c375c",
".E c #5c1e64",
".F c #9c664a",
".G c #7c5a47",
".H c #8f565f",
".I c #ac7377",
".J c #47463a",
".K c #5c5247",
".L c #996e77",
".M c #c48884",
".N c #442f50",
".O c #745264",
".P c #744e51",
".Q c #644537",
".R c #241e4c",
".S c #bc7e69",
".T c #846349",
".U c #9c7957",
".V c #ac7359",
".W c #8c624f",
".X c #443a2c",
".Y c #6c4c3b",
".Z c #643e58",
".0 c #2c2e2c",
".1 c #c48778",
".2 c #846e64",
".3 c #91625f",
".4 c #342268",
".5 c #9c695e",
".6 c #7c5b58",
".7 c #845b69",
".8 c #2f1e3c",
".9 c #a47053",
"#. c #ac7a6c",
"## c #916677",
"#a c #54376d",
"#b c #7a5643",
"#c c #544544",
"#d c #644462",
"#e c #442e67",
"#f c #84555e",
"#g c #1c1c14",
"#h c #a92261",
"#i c #8c5d50",
"#j c #926667",
"#k c #945c61",
"#l c #443f34",
"#m c #442274",
"#n c #845643",
"#o c #bc807e",
"#p c #a47aa4",
"#q c #342244",
"#r c #7c503c",
"#s c #5c4232",
"#t c #947674",
"#u c #ac7468",
"#v c #c48e64",
"#w c #8c1e4c",
"#x c #6c3e4c",
"#y c #5c4d54",
"#z c #744d75",
"#A c #946752",
"#B c #342a24",
"#C c #7b564f",
"#D c #644244",
"#E c #3c2567",
"#F c #a46960",
"#G c #6c467c",
"#H c #44403c",
"#I c #543e47",
"#J c #74424c",
"#K c #b48264",
"#L c #543e5c",
"#M c #2c2a24",
"#N c #8c5550",
"#O c #9c624e",
"#P c #d49484",
"#Q c #845a43",
"#R c #ac7587",
"#S c #4c4e4c",
"#T c #6c5248",
"#U c #cc9687",
"#V c #6c4e50",
"#W c #845c57",
"#X c #845a80",
"#Y c #a4706a",
"#Z c #6c4665",
"#0 c #443268",
"#1 c #ac6c6a",
"#2 c #7c4a5c",
"#3 c #b47a5f",
"#4 c #2c2620",
"#5 c #3c2a4c",
"#6 c #845150",
"#7 c #c42264",
"#8 c #341e4c",
"#9 c #982274",
"a. c #44224c",
"a# c #6c565c",
"aa c #7c1e64",
"ab c #9c6274",
"ac c #542274",
"ad c #4c3684",
"ae c #6c2268",
"af c #9c2254",
"ag c #a4707a",
"ah c #3c322c",
"ai c #9c6878",
"aj c #a47780",
"ak c #bc8e94",
"al c #2c1e68",
"am c #74624c",
"an c #563e32",
"ao c #8c6277",
"ap c #442674",
"aq c #b48674",
"ar c #9a6e66",
"as c #c77e81",
"at c #5c227c",
"au c #444644",
"av c #74566c",
"aw c #c48f77",
"ax c #1c1612",
"ay c #3c3e3c",
"az c #5c3e6c",
"aA c #784a52",
"aB c #8c5670",
"aC c #bc826e",
"aD c #84626c",
"aE c #94264c",
"aF c #742664",
"aG c #846258",
"aH c #845571",
"aI c #bc8294",
"aJ c #cc929c",
"aK c #442361",
"aL c #a45e54",
"aM c #7c5b67",
"aN c #b47c82",
"aO c #5c455c",
"aP c #a46750",
"aQ c #64534b",
"aR c #4c325c",
"aS c #6c4537",
"aT c #a47763",
"aU c #34302b",
"aV c #cc8771",
"aW c #241e1b",
"aX c #dc9c8c",
"aY c #84564c",
"aZ c #7c4a39",
"a0 c #2c1e52",
"a1 c #94624e",
"a2 c #5c3e54",
"a3 c #4c3267",
"a4 c #c48e84",
"a5 c #946277",
"a6 c #3c3935",
"a7 c #945a44",
"a8 c #644b3f",
"a9 c #342355",
"b. c #b47674",
"b# c #7c535d",
"ba c #7c514e",
"bb c #b47c70",
"bc c #5c464c",
"bd c #945d4e",
"be c #4c402e",
"bf c #4c1e6c",
"bg c #b47466",
"bh c #644b4f",
"bi c #6c464c",
"bj c #4c423c",
"bk c #94564c",
"bl c #b47684",
"bm c #b46a6c",
"bn c #3c1a54",
"bo c #bc896d",
"bp c #4c4845",
"bq c #7c5571",
"br c #cc8e7c",
"bs c #543a34",
"bt c #744b6c",
"bu c #8c665c",
"bv c #543964",
"bw c #9c5e54",
"bx c #745144",
"by c #8c5c6c",
"bz c #54453c",
"bA c #642264",
"bB c #9c6754",
"bC c #44325c",
"bD c #bc7d74",
"bE c #4c382c",
"bF c #6c4b44",
"bG c #342374",
"bH c #9c6a6c",
"bI c #845a74",
"bJ c #a46f5c",
"bK c #64446c",
"bL c #442b74",
"bM c #1c1e1c",
"bN c #9c5e6c",
"bO c #945c6c",
"bP c #7c5044",
"bQ c #5c453c",
"bR c #94675c",
"bS c #dc9284",
"bT c #845c4c",
"bU c #7c4e6c",
"bV c #3c2d5c",
/* pixels */
"#s.dbB.G.V#Q#i.Q#W.V#.bB.dbba8.dbB#3bH.M.6aj#kbO.v#faD.z#i.v#RbD#y#WbJ#iaT.V#A.6#b#u.d.q#QbBa8#A.5#K",
".Q.G#QbJ#A.qbxbxam.x.W#r#..r.QbRarbb#WaIbh#f.5.H#i#jbc.7babybOagaQ#WbB#Q#ubxbx#s#i#A.daq.F.T.G.x#Q#Q",
"bxbz.h#r#i#i.G.V.A#n#Q#QaZ#Qbx#sba#i.I.Hbcby###6b##faMbN#R.va5#c.LaYa1.daT.V.A.h.G#n.t#Q#Q#s#rbraPa1",
"a1.h#s.t#3.x.d#ia8bo.qbB.qbB#b.t.q#6#ibbaOagai.Hbyb#aM.P.7#f.l#sbx.u#n.d.q.Y#n#r.FbJ.x#n.Y.xaY.9#3bz",
"#rbJ.9an#r#ba7.9.d.AaY#r#QbTbJbzbJ#WbHbb.s#f#F#f.v.Iavbl.7abbO#VbP#bbda7.d#n#n.m#Q.hbJbe.9bT.9.x#b.Y",
"bTbBbB#i.AbB#r.5aYbobF.baC#A#F#C.x.h#W.v.P.saH#VaIbya5bU#6agb#bzar.q#F#n.dbe.b.g#r.q#bbx.d#naYbB.##b",
"#n.U#i.VbT.G.x#r#ibBbT.A#Qaq#naT.A.x#6#u.f#I#N.laHbqbta5byagbI.G#6#i#i#A#i.A#raq.taT.A.x#r#r#ibs.q.t",
"#V.n#r.G.haZ#n.x#r.x.Y.U.x#Q.t.xbJ.xba#i.P#La5.lby#D#pb##f.LaiaS.x#r.x.Y.U.x#n.t.xbJbdbP#Q.jbE.d.j#Q",
"bP#rbP.daZ#A.Y.Y.d#r#ObTbQ#naT#b.d.YbxaT.tav##bI#X#2bU.v#2ai#2.YaZ#r#rbB.i#AaT.Y.h.Y#Q#A#rbe.Y.Gbx.t",
"a1#i#C.Y#Abd.YbebT#ibR.Q#VaS#naS.Yan.j.jaY.7#JaiaoaA.B#J#JbF.QaS.x#A.Y#laZ.t#b.d.e#A#b.j.AaZ.9aSaZbP",
"a6aUaUaU.c#Ha6a6.Xa6a6a6#HaUaUa6#H#4...p#4a5.Ca5aBaHaO#X.Z#z#HaUayaUbj#MaUa6#HaWaW#B.caWa6a6#4aUa6#H",
"bpa6aUbja6a6aUaUa6.cahaU#BaW..aW#4..#4aW#g.o.C.B.BbUaOaHbt#d.caU#BaUaU#4#BaWaWaW..#4..aW.Jbpa6#4#Ha6",
"#g#Ha6bp#H#Ha6#H#4ahaUa6aWa6#H#H#M#MaUaWaU.D#ZbqaHbq.o.B#Zbt#4axaUaUaUaU#4aua6ah.p.0axah.0#4aU#4bpbp",
"aUaUaxaUaUa6#M#4axa6a6aU#4a6ax.paW#4..ax#gaz#X#Z#z#d.D#Z#Z#5aW.0a6aUaU#B#4aW#4#MaW..axbM#MaU.paUaUaU",
"bpaUauaUaUaUaW#g.p#gaW#BaW#M#MaU.X#4#4a6a6bvbt#z#zbK.DbKbKbv#gaWaW#4#4#4aU#Ma6aU#4#l.cahaU#Sa6auaUaU",
"#H#Hay.X.0#Ma6aUaUahayaU#4a6aUbjay#4aUa6#H#aaz#GbvbK#0bK.BbCaUaU#Ha6.cah#H#H.X#Ba6a6bpa6#g#H#H#Ba6a6",
"aUaW#4#4#B#g#4#B.c#4aU#4.p#4aU#B#4#B#4.p#M#a#GbVazbvazbvbKa3aU.paUaWaWaW#4#4#4#M#4#M#4#4a6.p#gaUaU#B",
"bM#H#S#4.pa6ay.p#4#4a6#Hau.X.0#4#HaUbpaybpbV#abV#abv#aaRbV#0aWahaha6auayah.0a6a6a6bp.c#H#H#4a6a6aU#4",
"ax.p#gay#Hay#H#H#Haya6a6aW.pbMaW.paWaxax#g#Ea3a9#ebLad#ea9#ebpa6ayayaWbMaWax.p#4axax#gaW#g#gaWaUay.c",
"#Hayah#SayahaW#M#M.p#4#H#4#Hbpbp#Ma6#M#Ha6.RbG#EbLbVbL#Ea9a9#M.p.p#H#H#Ma6bp#Ma6.caUbj.0a6auaUbp#Ha6",
".p.ca6#g#BaWahay#Hahay.caUaUaU#ga6a6#Hbp#g.4bG.4.wal.4.w.4.4.XaUa6a6aW.c#H#MaUaU#H#Sa6#M#Ha6aU.pax#4",
"aU#H#Bahauahaxaya6bpaha6ay.c#4a6#HaU#MaUaUala9ap#E#map#E#m#EbMbjaya6a6a6.paha6aU.p#caUayaUaUay#H#4aU",
"a6a6aUa6aUayayah.cay#B#Sa6#I.0au#Say#H.paUa9.RacbnbfatbfaK.4a6aUaubj#Ha6#Ha6#S#H#H.0a6a6aUayahaU#H.c",
"ay.paU#S.C.ca6a6#B.0#Ha6#H.c#HahaxaW.paW#ga0.8.k.kaFae#8a9a0aUahaUay#Hbj.0aUaxbM#4axax..#Haya6#H#Sa6",
"a6a6aW#Ma6.c#B#Sa6#B#B.0#S.pay#M#Haha6a6a6#4#B#M#9#9aaaU#4.p.cahaha6#MbMaUa6#Ba6a6#4a6#HaUa6.pbM#H#H",
"aW#4aha6au#S#MauaUauau#HaWaya6a6#HaU#4#BaW#4a6a6#h#7#h#MaUaUaU.cau#H#g.c#H#HbpaU#M#BaWaWax#4#B#B#Say",
"#M.X#MaU.c#B#H#4aUbM#4#4aW#4#H#gax#4#H.paW#H#4ay#h#waf#4a6ah.0#4#B.0#4#4a6#BaUaWa6aUaU#4#B#Ma6aU#4#4",
"aUahayaubj#S#Hauaua6a6#S#HaU#4#gaW#HaUaU.caU#4bj.p#Baha6#M.c#4aya6bpau#H#4bM.paUaU#MaUaU#H.ca6a6#S#H",
"bM#4ayaU.pbM#M#B#B#Hbpa6.p#Mah.0.X.p#B.ca6#H.0aWaUa6aUaUa6aU#Bay#S#H#4#M#B.0.XaUa6#M#HaUbpax.0#4#4.c",
".X#M#4a6a6a6.cau.c.N#Ma6a6#Hayah.c.c#4#Ha6#H#4aU#M#4aya6#H#May#5#M#HaUa6auaU#Ba6aUa6a6ayaWa6aU#4#Ha6",
"a6.ca6#H#Hbp#S#Hbp.p.p#4ahaUaU.0#B.0ahaU#Baya6#4aUaUah#H.c#H.X.p#B#4ah.0#4#M.c#qah#MaUah.0a6#HaUbpa6",
"au#H.c#B.c.p#MaU#gaUa6.c#Ha6bp.caybpbpaW.ca6aW#4aU.c.c.c#B.c.paUa6a6.0a6#Sbpayay#H#4a6a6a6bp#Hay#4aU",
".p#BaUaUaU#5#MauaUaha6a6#S#H.0ax#Ha6.0..ay#4ay#M#waE.a#B.0aU#Bau.cahbpbp#H..bp#SaU.0a6.0#H#4.0.pahaU",
"aha6ayahayaUay#H#H.ca6aU#M#Ba6bj#MaUaW#B#S.8#8a.bAbA.E#8#8.8ayaU.caUa6#4a6a6a6.c#4aUahbM#HayahahaUa6",
"aUaU#4#Ba6#4aUaUay#HaU.8.p.0#qaU#4#B#BaU#BalbGbG.RbGal.4.RbG#H.XaU#BbMaU.c#B#BahaUa6#BaW#4.caU.c#BaU",
"a6#M.0aUa6a6a6a6.8axax..aWa6a6a6aUbMa6aU.c#e#ea3bVa3#E#a#ea3#B..#M..a6.XaW#H.c.p#MaUax.c#H.0aW#Ba6aU",
"aUaU#4#Ma6aya6#4#gaUaUa6aW#H.paU#BaU.p..#gaR#dbv#Zaz#d.oaz.N.paUa6aU.c#B#4.p#BaU#4#gaW#g#4a6#4.0aUa6",
"#H#4#H.c#B#B.paWaWaW.p#BaW#MaWaWaU#4#Ba6#H.N#da2#Z.laA#d#da2aWaWaW#4aWaU#4aW#4.0#B.caha6aW#HaU#HaUaU",
".Y.Y#N.jba.Q#s#i#rbx#i#ba8.t.m.t#nbQ.YbJbF.Bao.laH.B#Z.O#JaA#xbPbP.P#i#nbE.PaYbxbP.XaS.h.QbE.3.jbP.Y",
".j#ia1bP.Y#i.j.jbx.na8aL.n#i#ObxbPa1#Cb##Va#.Pbi#Rby#Wb#aA###Van.3bPbRbxbTbe#O.naZ#rbP.t#ibxbxbdaQ.j",
".Ybj#n.t.qa1#r#Abj#r#r#n.x.x.YanaYbaar#6#Ia5.vaZ.lbaav.H.L#6byaMbF#6#i#n.m#nbx#A.G#r.j#r#ban.YaTbB.x",
"bk#Q.5#bbJ#Q.G#K.x#r#n.W#A#K.j#CaA#CaYaN.6.P###Nb##f#Vajby#f##b#.Kag.j#ibP.q#Q.gan.W#AbT#A.x.9be#n.W",
".xa1#nbB#O.Aa7bdbo#r#Q.n#T.Y#1.x.uarai.#.Iaoba#W.v.3.s.IajaY#k#Y#jan#jaY#A#ua1#F.q.G#i#Q.d#A#b#n.G#b",
"#3bd.A.mbg.nbT.q#bbgbTamaCbgbR.5.5#ibhb#.r#F#obR.I#6#c#C.3.3#ib.#Wbba##FaYbd#uaPbo.d#W.T.q.n#Q#nbT.h",
"#b#Q#O#ObJbb#KaP#KbQ#b#ubT.3bb.3aV.7.6aN#FaIbd#j#F#W#y.I#f#kbabH#faN#Da#aNbr#i.ha1bobdbxa8.gbd.qaT.q",
"#Abg.9.rbb.Va1aP.T.QarbbbB.5.I.vaJaQ#W.IbB.u.r#Nagbw.i#Yas#NbN#Nag#Wak.6.G#k#6#O.rbb#i#QbJbpbB#Qbg.h",
".S#AaCbda1#A.V.g.Ybobw#i#i.M.5aV#Ua8#i.3#uboabbdaP.vbha1#Y#Y.d.3.3bm.ua1bh.haX.b#ia1.u#K#N.h.W.Q.h#O",
".F.hbJ#OaP.V.W.i#o.W.5#N#Pbd.5aVbF.2aNbubd.6bwbRbDbu.i.v#Ua1bR#u.h#o#W#FaQ#WaP#iaL.V#FbB.rbdbB.y.Q.W",
"#N.1aP.Faw#A#Abd.baraY#YbR.MbR#jbh#t#1aN.v#u#U.3.S.v.Ka4bgbB.z#kbRaXb.#i#OaQ#A#o#A#uaw#ibda1.SbT.S#v",
".VbJ.u.9.6.haLasa1bbbkb..M.5.6aQaGaXaP.1#ObS.S#uaX.vaQ.5.1aT.5#F.I#OaVbD.u#y#i.3bb#A.9#UbB.5bd.u.h.5"
};
