/* XPM */
static const char * move_on_xpm[] = {
"21 21 28 1",
" 	c #505050",
".	c #8C8C8C",
"+	c #000000",
"@	c #7D7D7D",
"#	c #AA7D7A",
"$	c #8E8E8E",
"%	c #7E7E7E",
"&	c #262626",
"*	c #CF8988",
"=	c #909090",
"-	c #C77473",
";	c #742B28",
">	c #929292",
",	c #818181",
"'	c #BD5C5A",
")	c #949494",
"!	c #9B6663",
"~	c #B2403D",
"{	c #969696",
"]	c #848484",
"^	c #989898",
"/	c #9A9A9A",
"(	c #9B9B9B",
"_	c #888888",
":	c #9D9D9D",
"<	c #9F9F9F",
"[	c #A1A1A1",
"}	c #A5A5A5",
"                     ",
" ................... ",
" ................... ",
" ................... ",
" ................... ",
" ........+.......... ",
" .......@+@......... ",
" .......+#+......... ",
" $$$$$$%&*+%$$$$$$$$ ",
" ======+#-;+======== ",
" >>>>>,&*''+,>>>>>>> ",
" )))))+!*'~;+))))))) ",
" {{{{]+*-~~~+]{{{{{{ ",
" ^^^^+#*'~~~;+^^^^^^ ",
" ////+''~~~~~+////// ",
" (((_+++++++++_((((( ",
" ::::::::::::::::::: ",
" <<<<<<<<<<<<<<<<<<< ",
" [[[[[[[[[[[[[[[[[[[ ",
" }}}}}}}}}}}}}}}}}}} ",
"                     "};
