/* XPM */
static const char * move_off_xpm[] = {
"21 21 39 1",
" 	c None",
".	c #505050",
"+	c #FFFFFF",
"@	c #F9F9F9",
"#	c #FAFAFA",
"$	c #F5F5F5",
"%	c #F2F2F2",
"&	c #EFEFEF",
"*	c #000000",
"=	c #EBEBEB",
"-	c #CFCFCF",
";	c #E8E8E8",
">	c #AA7D7A",
",	c #E5E5E5",
"'	c #CECECE",
")	c #262626",
"!	c #CF8988",
"~	c #E1E1E1",
"{	c #F8F8F8",
"]	c #C77473",
"^	c #742B28",
"/	c #DEDEDE",
"(	c #BD5C5A",
"_	c #DBDBDB",
":	c #F7F7F7",
"<	c #9B6663",
"[	c #B2403D",
"}	c #D7D7D7",
"|	c #F6F6F6",
"1	c #CCCCCC",
"2	c #D4D4D4",
"3	c #D1D1D1",
"4	c #CDCDCD",
"5	c #F4F4F4",
"6	c #CBCBCB",
"7	c #CACACA",
"8	c #F3F3F3",
"9	c #C7C7C7",
"0	c #C3C3C3",
".....................",
".+++++++++++++++++++.",
".@#################@.",
".$#################$.",
".%#################%.",
".&#######*#########&.",
".=######-*-########=.",
".;######*>*########;.",
".,@@@@@')!*'@@@@@@@,.",
".~{{{{{*>]^*{{{{{{{~.",
"./{{{{')!((*'{{{{{{/.",
"._::::*<!([^*::::::_.",
".}|||1*!][[[*1|||||}.",
".2$$$*>!([[[^*$$$$$2.",
".3$$$*(([[[[[*$$$$$3.",
".4556*********655554.",
".7888888888888888887.",
".9%%%%%%%%%%%%%%%%%9.",
".0%%%%%%%%%%%%%%%%%0.",
".4444444444444444444.",
"....................."};
