/* XPM */
static const char * rot_on_xpm[] = {
"21 21 127 2",
"  	c None",
". 	c #505050",
"+ 	c #8D8D8D",
"@ 	c #8C8C8C",
"# 	c #4C4C4C",
"$ 	c #000000",
"% 	c #444444",
"& 	c #8F8F8F",
"* 	c #666666",
"= 	c #303F31",
"- 	c #8FC394",
"; 	c #8FC494",
"> 	c #384939",
", 	c #5E5E5E",
"' 	c #909090",
") 	c #8E8E8E",
"! 	c #6A696A",
"~ 	c #172218",
"{ 	c #8EBF92",
"] 	c #8EC995",
"^ 	c #84C28A",
"/ 	c #77BC7E",
"( 	c #79BF81",
"_ 	c #78B37D",
": 	c #172618",
"< 	c #626162",
"[ 	c #747374",
"} 	c #111911",
"| 	c #8EBE92",
"1 	c #8CCD93",
"2 	c #49744D",
"3 	c #36633B",
"4 	c #66BC70",
"5 	c #5CA062",
"6 	c #0A190B",
"7 	c #6D6B6D",
"8 	c #919191",
"9 	c #676667",
"0 	c #152217",
"a 	c #96D99C",
"b 	c #4B794F",
"c 	c #272226",
"d 	c #302B30",
"e 	c #35673B",
"f 	c #6CC576",
"g 	c #102613",
"h 	c #605E60",
"i 	c #949494",
"j 	c #929292",
"k 	c #7E7E7E",
"l 	c #0B120C",
"m 	c #90C194",
"n 	c #638F68",
"o 	c #1E1A1E",
"p 	c #939393",
"q 	c #2B242A",
"r 	c #2A6C32",
"s 	c #3D9045",
"t 	c #000D01",
"u 	c #787778",
"v 	c #969696",
"w 	c #807F80",
"x 	c #0E170E",
"y 	c #95D79C",
"z 	c #528457",
"A 	c #9E9E9E",
"B 	c #332C32",
"C 	c #28682F",
"D 	c #4CB458",
"E 	c #041806",
"F 	c #7A7879",
"G 	c #959595",
"H 	c #989898",
"I 	c #828282",
"J 	c #070F08",
"K 	c #78B27D",
"L 	c #55885A",
"M 	c #211C20",
"N 	c #979797",
"O 	c #2C252B",
"P 	c #000D00",
"Q 	c #7C7A7C",
"R 	c #9A9A9A",
"S 	c #6C6B6C",
"T 	c #111F12",
"U 	c #7ECD87",
"V 	c #3A7140",
"W 	c #2B252A",
"X 	c #352E34",
"Y 	c #245E2A",
"Z 	c #4CB559",
"` 	c #08210B",
" .	c #666365",
"..	c #9C9C9C",
"+.	c #9B9B9B",
"@.	c #7E7D7E",
"#.	c #061107",
"$.	c #5C9F62",
"%.	c #5BB666",
"&.	c #28632F",
"*.	c #265B2C",
"=.	c #49AE55",
"-.	c #3B8D43",
";.	c #011202",
">.	c #777577",
",.	c #9D9D9D",
"'.	c #787678",
").	c #46A651",
"!.	c #45A350",
"~.	c #3C8F45",
"{.	c #031805",
"].	c #6F6D6F",
"^.	c #9F9F9F",
"/.	c #A0A0A0",
"(.	c #727272",
"_.	c #122A14",
":.	c #3E9447",
"<.	c #3F9649",
"[.	c #143117",
"}.	c #6A6A6A",
"|.	c #A2A2A2",
"1.	c #515151",
"2.	c #A1A1A1",
"3.	c #545454",
"4.	c #A3A3A3",
"5.	c #A7A7A7",
"6.	c #A5A5A5",
". . . . . . . . . . . . . . . . . . . . . ",
". + @ @ @ @ @ @ @ @ @ @ @ @ @ @ @ @ @ + . ",
". + @ @ @ @ @ @ @ @ @ @ @ @ @ @ @ @ @ + . ",
". + @ @ @ @ @ @ @ @ @ @ @ @ @ @ @ @ @ + . ",
". + @ @ @ @ @ @ @ @ @ @ @ @ @ @ @ @ @ + . ",
". + @ @ @ @ @ @ # $ $ % @ @ @ @ @ @ @ + . ",
". + @ @ @ & * $ = - ; > $ , ' @ @ @ @ + . ",
". + @ @ ) ! ~ { ] ^ / ( _ : < & @ @ @ + . ",
". & ) & [ } | 1 2 $ $ 3 4 5 6 7 ' ) ) & . ",
". 8 ' & 9 0 a b c ' 8 d e f g h & ' ' 8 . ",
". i j k l m n o ' p p 8 q r s t u p j i . ",
". v i w x y z c A i i A B C D E F G i v . ",
". H v I J K L M i N N i O r s P Q N v H . ",
". R H N S T U V W H H X Y Z `  .N H H R . ",
". ..R +.@.#.$.%.&.$ $ *.=.-.;.>...R R ... ",
". ,.+.+.,.'.;.-.).!.!.).~.{.].A +.+.+.,.. ",
". ^.,.,.,./.(.$ _.:.<.[.$ }.|.,.,.,.,.^.. ",
"1.2.^.^.^.^.^.A 3.$ $ # A ^.^.^.^.^.^.2.1.",
"1.4.2.2.2.2.2.2.2.2.2.2.2.2.2.2.2.2.2.4.1.",
"1.5.6.6.6.6.6.6.6.6.6.6.6.6.6.6.6.6.6.5.1.",
". . . . . . . . . . . . . . . . . . . . . "};
