/* XPM */
static char * rot_off_xpm[] = {
"22 21 39 1",
" 	c #505050",
".	c #FFFFFF",
"+	c #F9F9F9",
"@	c #FAFAFA",
"#	c #F5F5F5",
"$	c #F2F2F2",
"%	c #EFEFEF",
"&	c #CFCFCF",
"*	c #000000",
"=	c #EBEBEB",
"-	c #81AA84",
";	c #8DC793",
">	c #E8E8E8",
",	c #79BD80",
"'	c #6B9B6F",
")	c #E5E5E5",
"!	c #61B16A",
"~	c #518A56",
"{	c #E1E1E1",
"]	c #F8F8F8",
"^	c #CECECE",
"/	c #DEDEDE",
"(	c #45A350",
"_	c #327638",
":	c #DBDBDB",
"<	c #F7F7F7",
"[	c #D7D7D7",
"}	c #F6F6F6",
"|	c #CCCCCC",
"1	c #D4D4D4",
"2	c #CBCBCB",
"3	c #D1D1D1",
"4	c #CDCDCD",
"5	c #F4F4F4",
"6	c #CACACA",
"7	c #F3F3F3",
"8	c #C7C7C7",
"9	c #C9C9C9",
"0	c #C3C3C3",
"                      ",
" .................... ",
" +@@@@@@@@@@@@@@@@@@+ ",
" #@@@@@@@@@@@@@@@@@@# ",
" $@@@@@@@@@@@@@@@@@@$ ",
" %@@@@@@&***&@@@@@@@% ",
" =@@@@@**-;-**@@@@@@= ",
" >@@@@*-;;,,,'*@@@@@> ",
" )+++*-;,***!!~*++++) ",
" {]]^*;,*^]^*!!*^]]]{ ",
" /]]*-;*^]]]^*(_*]]]/ ",
" :<<*;,*<<<<<*((*<<<: ",
" [}}*',*|}}}|*(_*}}}[ ",
" 1##2*,!*2#2*((*2###1 ",
" 3###*~!(***((_*####3 ",
" 45555*_(((((_*555554 ",
" 677777**_(_**7777776 ",
" 8$$$$$$9***9$$$$$$$8 ",
" 0$$$$$$$$$$$$$$$$$$0 ",
" 44444444444444444444 ",
"                      "};
