/* XPM */
static const char * rot_off_xpm[] = {
"21 21 134 2",
"  	c None",
". 	c #505050",
"+ 	c #525252",
"@ 	c #FFFFFF",
"# 	c #FAFAFA",
"$ 	c #FEFEFE",
"% 	c #FBFBFB",
"& 	c #F4F4F4",
"* 	c #7C7C7C",
"= 	c #000000",
"- 	c #707070",
"; 	c #F3F3F3",
"> 	c #F7F7F7",
", 	c #B6B6B6",
"' 	c #303F31",
") 	c #8FC394",
"! 	c #8FC494",
"~ 	c #384939",
"{ 	c #A8A8A8",
"] 	c #C0BFC0",
"^ 	c #0F1A10",
"/ 	c #8EBF92",
"( 	c #8EC995",
"_ 	c #84C28A",
": 	c #77BC7E",
"< 	c #79BF81",
"[ 	c #78B37D",
"} 	c #0F1E10",
"| 	c #B3B1B3",
"1 	c #515151",
"2 	c #F0F0F0",
"3 	c #F9F9F9",
"4 	c #CDCCCD",
"5 	c #09120A",
"6 	c #8EBE92",
"7 	c #8CCD93",
"8 	c #49744D",
"9 	c #36633B",
"0 	c #66BC70",
"a 	c #5CA062",
"b 	c #021104",
"c 	c #C1BFC1",
"d 	c #FDFDFD",
"e 	c #EDEDED",
"f 	c #F5F5F5",
"g 	c #A6A5A6",
"h 	c #101C11",
"i 	c #96D99C",
"j 	c #47764C",
"k 	c #433F43",
"l 	c #F2F2F2",
"m 	c #514C51",
"n 	c #316337",
"o 	c #6CC576",
"p 	c #0A200D",
"q 	c #9C9A9B",
"r 	c #F8F8F8",
"s 	c #EAEAEA",
"t 	c #D8D8D8",
"u 	c #040B05",
"v 	c #90C194",
"w 	c #618C65",
"x 	c #363236",
"y 	c #ECECEC",
"z 	c #EEEEEE",
"A 	c #474046",
"B 	c #27692F",
"C 	c #3D9045",
"D 	c #000600",
"E 	c #E6E6E6",
"F 	c #D7D6D7",
"G 	c #071008",
"H 	c #95D79C",
"I 	c #4E8154",
"J 	c #474246",
"K 	c #595258",
"L 	c #24642B",
"M 	c #4CB458",
"N 	c #001100",
"O 	c #CCCBCC",
"P 	c #E3E3E3",
"Q 	c #010801",
"R 	c #78B27D",
"S 	c #528558",
"T 	c #373236",
"U 	c #464046",
"V 	c #CCCACC",
"W 	c #E0E0E0",
"X 	c #F6F6F6",
"Y 	c #A4A3A4",
"Z 	c #0C1A0D",
"` 	c #7ECD87",
" .	c #376E3D",
"..	c #443E43",
"+.	c #EFEFEF",
"@.	c #524C51",
"#.	c #205A27",
"$.	c #4CB559",
"%.	c #031C06",
"&.	c #9A989A",
"*.	c #F1F1F1",
"=.	c #DCDCDC",
"-.	c #CAC9CA",
";.	c #000B00",
">.	c #5C9F62",
",.	c #5BB666",
"'.	c #28632F",
").	c #265B2C",
"!.	c #49AE55",
"~.	c #3B8D43",
"{.	c #000C00",
"].	c #BEBDBE",
"^.	c #D9D9D9",
"/.	c #BEBCBD",
"(.	c #46A651",
"_.	c #45A350",
":.	c #3C8F45",
"<.	c #001200",
"[.	c #B0AEB0",
"}.	c #D6D6D6",
"|.	c #B1B1B1",
"1.	c #122A14",
"2.	c #3E9447",
"3.	c #3F9649",
"4.	c #143117",
"5.	c #A4A4A4",
"6.	c #D2D2D2",
"7.	c #797979",
"8.	c #6D6D6D",
"9.	c #CFCFCF",
"0.	c #CCCCCC",
"a.	c #C8C8C8",
"b.	c #D0D0D0",
"c.	c #CDCDCD",
". . . . . . . . . . . . . . . . . . . . . ",
"+ @ # # # # # # # # # # # # # # # # @ @ + ",
"+ $ # # # # # # # # # # # # # # # # # $ + ",
"+ # # # # # % & * = = - ; % # # # # # # + ",
"+ > # # # @ , = ' ) ! ~ = { @ # # # # > + ",
"+ & # # $ ] ^ / ( _ : < [ } | @ # # # & + ",
"1 2 3 % 4 5 6 7 8 = = 9 0 a b c d 3 # 2 1 ",
"1 e 3 f g h i j k 2 l m n o p q & r # e 1 ",
"1 s # t u v w x y # # z A B C D 4 # 3 s 1 ",
"1 E 3 F G H I J @ > > @ K L M N O 3 3 E 1 ",
"1 P r F Q R S T s r r y U B C D V r 3 P 1 ",
"1 W X l Y Z `  ...e +.@.#.$.%.&.*.f r W 1 ",
"1 =.X > -.;.>.,.'.= = ).!.~.{.].3 f > =.1 ",
"1 ^.f & r /.{.~.(._._.(.:.<.[.# & & X ^.1 ",
"1 }.& ; ; 3 |.= 1.2.3.4.= 5.% ; ; ; X }.1 ",
"1 6.; l l l ; y 7.= = 8.y ; l l l l f 6.1 ",
"1 9.; l l l l l l l l l l l l l l l ; 9.1 ",
"1 0.# # # # # # # # # # # # # # # # l 0.1 ",
"1 a.# # # # # # # # # # # # # # # # & a.1 ",
"1 b.c.c.c.c.c.c.c.c.c.c.c.c.c.c.c.c.c.b.1 ",
". . . . . . . . . . . . . . . . . . . . . "};
