/* XPM */
static const char * rot_on_xpm[] = {
"22 21 29 1",
" 	c #505050",
".	c #8C8C8C",
"+	c #7D7D7D",
"@	c #000000",
"#	c #81AA84",
"$	c #8DC793",
"%	c #79BD80",
"&	c #6B9B6F",
"*	c #8E8E8E",
"=	c #61B16A",
"-	c #518A56",
";	c #909090",
">	c #808080",
",	c #929292",
"'	c #818181",
")	c #45A350",
"!	c #327638",
"~	c #949494",
"{	c #969696",
"]	c #848484",
"^	c #989898",
"/	c #868686",
"(	c #9A9A9A",
"_	c #9B9B9B",
":	c #9D9D9D",
"<	c #9F9F9F",
"[	c #8B8B8B",
"}	c #A1A1A1",
"|	c #A5A5A5",
"                      ",
" .................... ",
" .................... ",
" .................... ",
" .................... ",
" .......+@@@+........ ",
" ......@@#$#@@....... ",
" .....@#$$%%%&@...... ",
" ****@#$%@@@==-@***** ",
" ;;;>@$%@>;>@==@>;;;; ",
" ,,,@#$@',,,'@)!@,,,, ",
" ~~~@$%@~~~~~@))@~~~~ ",
" {{{@&%@]{{{]@)!@{{{{ ",
" ^^^/@%=@/^/@))@/^^^^ ",
" ((((@-=)@@@))!@((((( ",
" _____@!)))))!@______ ",
" ::::::@@!)!@@::::::: ",
" <<<<<<<[@@@[<<<<<<<< ",
" }}}}}}}}}}}}}}}}}}}} ",
" |||||||||||||||||||| ",
"                      "};
