/* XPM */
static const char * scale_on_xpm[] = {
"21 21 22 1",
" 	c #505050",
".	c #8C8C8C",
"+	c #8E8E8E",
"@	c #000000",
"#	c #909090",
"$	c #7695DA",
"%	c #6B8CD7",
"&	c #5F83D4",
"*	c #5279D0",
"=	c #929292",
"-	c #446ECC",
";	c #3562C8",
">	c #949494",
",	c #2555C4",
"'	c #969696",
")	c #989898",
"!	c #9A9A9A",
"~	c #9B9B9B",
"{	c #9D9D9D",
"]	c #9F9F9F",
"^	c #A1A1A1",
"/	c #A5A5A5",
"                     ",
" ................... ",
" ................... ",
" ................... ",
" ................... ",
" ................... ",
" ................... ",
" ................... ",
" ++++@@@@@@@++++++++ ",
" ####@$$%&*@######## ",
" ====@%%*-;@======== ",
" >>>>@&*-;,@>>>>>>>> ",
" ''''@*-;,,@'''''''' ",
" ))))@*-;,,@)))))))) ",
" !!!!@@@@@@@!!!!!!!! ",
" ~~~~~~~~~~~~~~~~~~~ ",
" {{{{{{{{{{{{{{{{{{{ ",
" ]]]]]]]]]]]]]]]]]]] ",
" ^^^^^^^^^^^^^^^^^^^ ",
" /////////////////// ",
"                     "};
