/* XPM */
static const char * scale_off_xpm[] = {
"21 21 34 1",
" 	c None",
".	c #505050",
"+	c #FFFFFF",
"@	c #F9F9F9",
"#	c #FAFAFA",
"$	c #F5F5F5",
"%	c #F2F2F2",
"&	c #EFEFEF",
"*	c #EBEBEB",
"=	c #E8E8E8",
"-	c #E5E5E5",
";	c #000000",
">	c #E1E1E1",
",	c #F8F8F8",
"'	c #7695DA",
")	c #6B8CD7",
"!	c #5F83D4",
"~	c #5279D0",
"{	c #DEDEDE",
"]	c #446ECC",
"^	c #3562C8",
"/	c #DBDBDB",
"(	c #F7F7F7",
"_	c #2555C4",
":	c #D7D7D7",
"<	c #F6F6F6",
"[	c #D4D4D4",
"}	c #D1D1D1",
"|	c #CDCDCD",
"1	c #F4F4F4",
"2	c #CACACA",
"3	c #F3F3F3",
"4	c #C7C7C7",
"5	c #C3C3C3",
".....................",
".+++++++++++++++++++.",
".@#################@.",
".$#################$.",
".%#################%.",
".&#################&.",
".*#################*.",
".=#################=.",
".-@@@;;;;;;;@@@@@@@-.",
".>,,,;'')!~;,,,,,,,>.",
".{,,,;))~]^;,,,,,,,{.",
"./(((;!~]^_;(((((((/.",
".:<<<;~]^__;<<<<<<<:.",
".[$$$;~]^__;$$$$$$$[.",
".}$$$;;;;;;;$$$$$$$}.",
".|11111111111111111|.",
".2333333333333333332.",
".4%%%%%%%%%%%%%%%%%4.",
".5%%%%%%%%%%%%%%%%%5.",
".|||||||||||||||||||.",
"....................."};
